<svg width="146" height="44" viewBox="0 0 146 44" fill="none" xmlns="http://www.w3.org/2000/svg">
<g clip-path="url(#clip0_440_284)">
<path d="M3.0124 31.4497C2.47708 31.4509 1.95105 31.3029 1.48803 31.0208C1.02502 30.7386 0.641629 30.3325 0.377024 29.8438C0.116468 29.3586 -0.013478 28.8081 0.00110542 28.2512C0.0156888 27.6944 0.174252 27.1522 0.459811 26.6828L5.88694 17.7333C6.16471 17.2523 6.55908 16.8574 7.02976 16.5888C7.50045 16.3203 8.03058 16.1877 8.56601 16.2047C9.10103 16.2182 9.62305 16.3807 10.0786 16.6755C10.5342 16.9704 10.907 17.3871 11.1588 17.883C11.6648 18.8876 11.6015 20.0962 10.9956 21.0392L5.57189 29.9887C5.29685 30.4388 4.91807 30.8086 4.47064 31.064C4.02322 31.3194 3.52165 31.4521 3.0124 31.4497V31.4497Z" fill="#F62B54"/>
<path d="M12.3209 31.4496C11.2263 31.4496 10.219 30.8351 9.69011 29.8474C9.43013 29.3635 9.30049 28.8144 9.31507 28.259C9.32966 27.7037 9.48792 27.1629 9.77289 26.6948L15.1897 17.7659C15.4634 17.2781 15.8563 16.8762 16.3278 16.6016C16.7993 16.3271 17.3321 16.1901 17.871 16.2047C18.9749 16.23 19.9752 16.8784 20.4811 17.8927C20.9836 18.9069 20.91 20.1228 20.2857 21.0634L14.87 29.9923C14.5958 30.4404 14.2186 30.8089 13.7731 31.0636C13.3276 31.3183 12.8281 31.451 12.3209 31.4496V31.4496Z" fill="#FFCC00"/>
<path d="M21.422 31.5241C22.9651 31.5241 24.216 30.2381 24.216 28.6516C24.216 27.0652 22.9651 25.7792 21.422 25.7792C19.8789 25.7792 18.6279 27.0652 18.6279 28.6516C18.6279 30.2381 19.8789 31.5241 21.422 31.5241Z" fill="#00CA72"/>
<path d="M142.804 25.946C143.648 25.946 144.153 26.5763 144.153 27.6087V31.1464H145.299V27.5278C145.299 25.7722 144.511 24.7543 143.03 24.7543C142.451 24.7543 141.531 24.9209 140.983 26.0402C140.855 25.7101 140.645 25.4223 140.374 25.2076C140.104 24.9929 139.783 24.8592 139.445 24.8207C139.233 24.7799 139.017 24.7665 138.801 24.7809C138.33 24.8207 137.491 25.1286 137.177 25.8265V24.8883H136.029V31.1464H137.177V27.7692C137.177 26.4556 137.995 25.946 138.815 25.946C139.583 25.946 140.088 26.563 140.088 27.5954V31.1464H141.229V27.7692C141.229 26.7236 141.827 25.934 142.804 25.946ZM131.817 30.1008C132.342 30.1129 132.848 29.8931 133.215 29.4947C133.582 29.0962 133.778 28.5541 133.758 27.9974C133.758 26.7369 132.875 25.946 131.817 25.946C130.759 25.946 129.877 26.7369 129.877 27.9974C129.856 28.5529 130.051 29.0938 130.417 29.491C130.783 29.8895 131.286 30.1104 131.808 30.1008H131.817V30.1008ZM131.817 31.2744C130.141 31.2744 128.742 29.974 128.742 27.9902C128.742 26.0064 130.141 24.7471 131.817 24.7471C133.494 24.7471 134.905 26.0064 134.905 27.9902C134.905 29.974 133.486 31.2804 131.809 31.2804L131.817 31.2744ZM122.837 27.9902L122.826 27.9974C122.826 26.0136 124.262 24.7543 125.95 24.7471C126.374 24.7384 126.795 24.8234 127.186 24.9965C127.577 25.1695 127.928 25.4268 128.219 25.7516L127.349 26.5292C127.165 26.3388 126.946 26.1887 126.706 26.0876C126.466 25.9865 126.209 25.9363 125.95 25.94C124.892 25.94 123.972 26.7309 123.972 27.9902C123.972 28.8414 124.454 29.6082 125.193 29.9342C125.933 30.2602 126.784 30.0791 127.349 29.4778L128.231 30.2553C127.94 30.5835 127.587 30.8439 127.194 31.0194C126.801 31.195 126.377 31.2818 125.95 31.2744C124.275 31.2744 122.837 29.974 122.837 27.9902ZM119.166 29.945C119.165 29.8356 119.184 29.727 119.223 29.6255C119.262 29.5239 119.319 29.4313 119.392 29.3531C119.465 29.2748 119.552 29.2124 119.647 29.1693C119.743 29.1263 119.846 29.1035 119.95 29.1022C120.054 29.1035 120.157 29.1263 120.253 29.1693C120.349 29.2124 120.436 29.2748 120.509 29.3531C120.581 29.4313 120.639 29.5239 120.678 29.6255C120.716 29.727 120.736 29.8356 120.734 29.945C120.724 30.1569 120.637 30.3567 120.492 30.5037C120.346 30.6507 120.152 30.7337 119.95 30.7359C119.748 30.7337 119.555 30.6507 119.409 30.5037C119.263 30.3567 119.176 30.1569 119.166 29.945Z" fill="white"/>
<path fill-rule="evenodd" clip-rule="evenodd" d="M122.302 16.9327H118.219L115.357 24.6807L112.51 16.9327H108.427L113.391 29.176L110.304 37.2706H114.357L122.302 16.9327V16.9327ZM97.4708 23.7426C97.4708 25.6986 99.0989 26.9857 100.698 26.9857C102.27 26.9857 103.814 25.788 103.814 23.7414C103.814 21.6948 102.27 20.4958 100.698 20.4958C99.0989 20.4958 97.4708 21.7841 97.4708 23.7414V23.7426ZM103.814 30.579V29.0299C102.986 30.346 101.055 30.8435 100.064 30.8435C96.7821 30.8435 93.4993 28.1267 93.4993 23.7414C93.4993 19.3572 96.7809 16.6405 100.064 16.6405C100.89 16.6405 102.822 16.9303 103.814 18.4516V16.9375H107.62V30.5814L103.814 30.5802V30.579ZM92.4162 30.579H88.6103V28.8838C87.9745 30.1395 86.4326 30.8712 84.832 30.8712C81.5217 30.8712 78.5977 28.0953 78.5977 23.7969C78.5977 19.4176 81.5217 16.6381 84.832 16.6381C86.4303 16.6381 87.9768 17.3384 88.6103 18.5953V9.49976H92.4162V30.579ZM88.5275 23.7112C88.5275 21.6658 87.1213 20.4668 85.5495 20.4668C83.9214 20.4668 82.5692 21.7527 82.5692 23.7112C82.5692 25.7324 83.9214 27.0123 85.5484 27.0123C87.15 27.0147 88.5275 25.6696 88.5275 23.7112V23.7112ZM69.1876 23.3586C69.1876 21.2842 70.2087 20.5827 71.5597 20.5827C72.8555 20.5827 73.7938 21.4883 73.7938 23.2994V30.5766H77.6273V22.4241C77.6273 18.5386 75.806 16.6381 72.9096 16.6381C71.393 16.6381 69.8764 17.5436 69.1865 18.9177V16.9327H65.3553V30.5766H69.1876V23.3586V23.3586ZM57.571 30.8109C53.9307 30.8109 50.8941 28.006 50.8941 23.71C50.8941 19.4115 53.9273 16.6344 57.571 16.6344C61.2148 16.6344 64.2745 19.4115 64.2745 23.71C64.2745 28.0084 61.2114 30.8121 57.571 30.8121V30.8109V30.8109ZM57.571 26.8384C59.1693 26.8384 60.495 25.6093 60.495 23.7112C60.495 21.8699 59.1704 20.6129 57.571 20.6129C57.1859 20.6066 56.8036 20.6827 56.4474 20.8365C56.0912 20.9903 55.7685 21.2186 55.4991 21.5076C55.228 21.7982 55.0154 22.1429 54.8738 22.5215C54.7321 22.9 54.6644 23.3046 54.6747 23.7112C54.6758 25.6117 55.9992 26.8384 57.571 26.8384ZM44.0216 20.5839C45.1519 20.5839 46.1453 21.5197 46.1453 23.3007V30.579H49.9512V22.8298C49.9512 18.71 48.0437 16.6357 44.9863 16.6357C44.078 16.6357 42.367 16.9254 41.1252 19.0602C40.4077 17.4821 39.0291 16.6634 36.9916 16.6634C36.2843 16.6596 35.5908 16.8699 34.9942 17.269C34.3975 17.6681 33.923 18.2392 33.6273 18.9141V16.9339H29.7915V30.5778H33.6238V23.3586C33.6238 21.2842 34.7001 20.5827 35.8579 20.5827C36.9618 20.5827 37.9529 21.4883 37.9816 23.2125V30.5778H41.8151V23.3586C41.8151 21.3748 42.8086 20.5851 44.0216 20.5851V20.5839Z" fill="white"/>
</g>
<defs>
<clipPath id="clip0_440_284">
<rect width="145.878" height="43" fill="white" transform="translate(0 0.0935059)"/>
</clipPath>
</defs>
</svg>
