<svg width="205" height="40" viewBox="0 0 205 40" fill="none" xmlns="http://www.w3.org/2000/svg">
<path d="M24.6602 32.644C25.0017 30.6307 24.2844 28.5489 22.7474 27.1838C21.6545 26.16 20.1858 25.5798 18.6829 25.5798C17.7949 25.5798 16.941 25.3751 16.1554 24.9656C15.1308 24.4196 14.3111 23.5664 13.7646 22.5427C14.072 21.7577 14.2086 20.9046 14.2086 19.9832C14.2086 22.4744 16.1896 24.4878 18.6488 24.4878H18.7512C21.1763 24.4538 23.1231 22.4402 23.1231 19.9832C23.1231 19.0959 23.2939 18.2427 23.5671 17.4237C24.0454 16.161 24.865 15.0348 25.958 14.2158C27.2901 13.192 28.9294 12.7143 30.569 12.7825C29.4077 10.8032 27.7683 9.131 25.7873 7.93657C25.7873 8.03895 25.7873 8.17546 25.7873 8.27784C25.7873 9.84766 25.275 11.3492 24.3527 12.6119C24.0794 12.373 23.7721 12.1682 23.4646 11.9976C24.2844 10.9397 24.6942 9.64288 24.6942 8.31197C24.6942 7.52706 24.5577 6.74215 24.2502 5.99137C23.3621 3.80731 21.2787 2.27162 18.8196 2.20336H18.6488H18.478C16.9752 2.20336 15.5065 2.40813 14.072 2.81764C8.02649 4.45571 3.27891 9.26751 1.67361 15.3761C0.648949 16.6388 0.0341552 18.1745 0 19.8125C0.102466 9.54051 8.29973 1.21371 18.478 1.11133H18.6829C18.7854 1.11133 18.8537 1.11133 18.9562 1.11133C29.0662 1.28196 37.2293 9.54051 37.3318 19.8125C37.3318 19.8808 37.3318 19.949 37.3318 20.0173C37.3318 20.0855 37.3318 20.1538 37.3318 20.222C37.2976 21.8601 36.717 23.3958 35.658 24.6584C34.7017 25.8187 33.3696 26.672 31.9011 27.0131C31.3545 27.1498 30.774 27.218 30.2275 27.218C28.6904 27.218 27.1876 26.706 25.958 25.7847C25.514 26.3989 24.9675 26.9109 24.3869 27.3887C25.3775 28.7196 25.8898 30.3918 25.7873 32.0638C27.7683 30.8693 29.4077 29.1973 30.569 27.218C31.013 27.1838 31.457 27.1156 31.9011 27.0131C30.5007 29.7433 28.2806 31.9616 25.5823 33.3947C23.4646 34.5209 21.0738 35.1011 18.6829 35.1011C17.6241 35.1011 16.6336 34.5891 16.0188 33.7702C15.5748 33.156 15.3357 32.4393 15.3357 31.6884C15.3357 30.6647 15.8139 29.7091 16.5312 29.0949C17.2143 29.2656 17.9657 29.3678 18.7171 29.3678C17.4534 29.3678 16.3945 30.4258 16.3945 31.7227C16.3945 33.0193 17.4192 34.0773 18.7171 34.0773H18.7512C20.015 34.0773 21.0738 33.0193 21.0738 31.7227C21.0738 30.4258 20.0492 29.3678 18.7512 29.3678C17.0435 29.3678 15.404 28.8902 13.9354 28.0029C13.628 27.798 13.3205 27.5933 13.0473 27.3887C12.4325 26.9109 11.9202 26.3647 11.442 25.7847C11.7153 25.5798 11.9885 25.3409 12.2617 25.068C12.9107 25.9211 13.7304 26.672 14.6868 27.218C15.9164 27.9347 17.3167 28.31 18.7512 28.31C19.571 28.31 20.3565 28.6171 20.9372 29.1289C21.6545 29.7433 22.1326 30.6989 22.1326 31.7227C22.1326 32.4733 21.8936 33.19 21.4495 33.8042C22.5766 33.5653 23.6696 33.2242 24.6942 32.7122L24.6602 32.644ZM32.2768 17.2872C32.0718 16.1269 31.6961 15.0348 31.1838 13.9769C29.5444 13.7039 27.8706 14.1476 26.5728 15.1372C25.07 16.2975 24.1819 18.1062 24.1819 20.0173C24.1819 20.9387 23.9769 21.7918 23.5671 22.5767C23.0549 23.6004 22.2008 24.4538 21.2104 24.9998C22.1326 25.3409 22.9524 25.8869 23.6696 26.5696C24.5235 25.9211 25.2407 25.068 25.753 24.1467C26.4703 22.884 26.8461 21.4847 26.8461 20.0173C26.8461 19.1641 27.1533 18.4134 27.6658 17.7991C28.3146 17.0483 29.2369 16.6047 30.2275 16.6047C30.9788 16.6047 31.6961 16.8435 32.2768 17.2872ZM32.5158 19.9149C32.4816 18.6863 31.457 17.6967 30.1932 17.6626C28.8954 17.6626 27.8706 18.7205 27.8706 19.9832C27.8706 20.0173 27.8706 20.0514 27.8706 20.0514C27.9049 21.3141 28.9294 22.3038 30.1932 22.3038C31.4913 22.3038 32.5158 21.2458 32.5158 19.9832C32.5158 19.9832 32.5158 19.949 32.5158 19.9149ZM27.6658 22.2356C27.4266 23.1569 27.0851 24.0782 26.5728 24.8973C27.8706 25.9211 29.5444 26.3307 31.1838 26.0576C31.6278 25.9893 32.0718 25.8529 32.5158 25.6822C34.7359 24.7609 36.2045 22.6109 36.273 20.1879V19.8808C36.273 18.3792 36.068 16.8777 35.658 15.4102C34.0529 9.33575 29.3052 4.52395 23.2939 2.85175C24.4552 3.84142 25.2407 5.17235 25.6165 6.63977V6.67391C28.7587 8.34608 31.1838 11.0762 32.5158 14.3864C33.2331 16.1269 33.6089 18.038 33.6089 20.0514C33.6089 21.1434 33.0964 22.1331 32.2768 22.7473C31.6961 23.1911 30.9788 23.464 30.2275 23.464C29.2027 23.43 28.2806 22.9522 27.6658 22.2356ZM18.4097 38.8891C8.29973 38.7184 0.136621 30.4258 0.0341554 20.1879V19.9832V19.7784C0.0683106 18.1403 0.648949 16.6046 1.70776 15.342C2.66411 14.1817 3.99617 13.3627 5.46484 12.9873C6.01132 12.8508 6.59197 12.7825 7.13845 12.7825C8.67545 12.7825 10.1783 13.2944 11.4079 14.2158C11.8519 13.6016 12.3984 13.0896 12.979 12.6119C11.9885 11.281 11.4762 9.60877 11.5445 7.93657C9.56349 9.131 7.92404 10.8032 6.76275 12.7825C6.31873 12.8166 5.87471 12.8849 5.43069 12.9873C6.83106 10.2572 9.05114 8.03895 11.7494 6.60564C13.8671 5.47948 16.2579 4.89933 18.6488 4.89933C19.7076 4.89933 20.6981 5.41124 21.3129 6.23026C21.7569 6.81042 21.9961 7.52706 21.9961 8.31197C21.9961 9.36988 21.5178 10.2913 20.8006 10.9056C20.0833 10.7349 19.366 10.6326 18.6146 10.6326C19.8784 10.6326 20.9372 9.57464 20.9372 8.27784C20.9372 6.98104 19.9125 5.92313 18.6146 5.92313H18.5805C17.3167 5.92313 16.2579 6.98104 16.2579 8.27784C16.2579 9.57464 17.2826 10.6326 18.5805 10.6326C20.2882 10.6326 21.9276 11.1103 23.3964 11.9976C23.7037 12.2024 24.0112 12.4071 24.2844 12.6119C24.865 13.0896 25.4115 13.6357 25.8898 14.2158C25.6165 14.4206 25.3432 14.6595 25.07 14.9325C24.4209 14.0793 23.6014 13.3285 22.6449 12.7825C21.4154 12.0659 20.015 11.6905 18.5805 11.6905C17.7949 11.6905 17.0093 11.3833 16.3945 10.8714C15.6431 10.223 15.1991 9.26751 15.1991 8.27784C15.1991 7.49295 15.4723 6.77628 15.8822 6.19615C14.7551 6.43502 13.628 6.81042 12.6033 7.28817C12.2617 9.30162 12.979 11.3833 14.516 12.7484C15.609 13.7722 17.0776 14.3523 18.5805 14.3523C19.4685 14.3523 20.3224 14.5571 21.108 14.9666C22.1326 15.5126 22.9524 16.3658 23.4989 17.3896C23.1914 18.2086 23.0206 19.0618 23.0549 19.949C23.0549 17.4578 21.0738 15.4444 18.6146 15.4444H18.5805C16.1554 15.4785 14.2086 17.4919 14.2086 19.949C14.2086 20.8363 14.0378 21.6895 13.7646 22.5084C13.2864 23.7711 12.4667 24.8973 11.3737 25.7164C10.0417 26.7402 8.40221 27.218 6.76275 27.1498C7.92404 29.1289 9.56349 30.8011 11.5445 31.9956C11.4762 30.3233 11.9544 28.6853 12.9449 27.3544C13.2181 27.5933 13.5255 27.798 13.8329 27.9687C13.0132 29.0267 12.6033 30.3233 12.6033 31.6544C12.6033 32.4393 12.7399 33.2242 13.0473 33.9749C13.9354 36.1591 16.0188 37.6947 18.478 37.7629H18.7854C20.2882 37.7629 21.7569 37.5582 23.1914 37.1487C29.2369 35.5107 33.9844 30.6989 35.5897 24.5902C36.6145 23.3276 37.2293 21.7918 37.2633 20.1538C37.161 30.4258 28.9637 38.7527 18.7854 38.8549H18.5805H18.3755C18.478 38.8891 18.4097 38.8891 18.4097 38.8891ZM14.072 37.1829C12.9107 36.1931 12.1251 34.8622 11.7494 33.3947C11.7494 33.3947 11.7494 33.3949 11.7494 33.3607C8.60712 31.6884 6.1821 28.9584 4.85006 25.6482C4.13278 23.8393 3.75708 21.9284 3.75708 19.9832C3.75708 18.8911 4.26941 17.9015 5.08915 17.2872C5.66978 16.8435 6.35288 16.5705 7.13845 16.5705C8.16312 16.5705 9.08529 17.0483 9.7001 17.765C9.93919 16.8094 10.2807 15.9221 10.7931 15.1031C9.49516 14.0793 7.82156 13.6698 6.1821 13.9428C5.70393 14.011 5.29406 14.1476 4.85006 14.3182C2.62995 15.2396 1.16128 17.3896 1.09297 19.8125C1.09297 19.8808 1.09297 19.9149 1.09297 19.9832V20.1538C1.09297 21.6554 1.2979 23.1569 1.70776 24.6242C3.34721 30.7329 8.06064 35.5447 14.072 37.1829ZM6.1821 26.0576C7.82156 26.3307 9.49516 25.8869 10.7931 24.8973C12.2959 23.7371 13.1839 21.9284 13.1839 20.0173C13.1839 19.0959 13.3889 18.2427 13.7987 17.4578C14.3111 16.434 15.1649 15.5809 16.1554 15.0348H16.1213C15.1991 14.6936 14.3794 14.1476 13.6621 13.465C12.8082 14.1134 12.091 14.9666 11.5786 15.888C10.8614 17.1507 10.4857 18.5499 10.4857 20.0173C10.4857 20.8704 10.1783 21.6212 9.66595 22.2356C9.01699 22.9862 8.0948 23.43 7.1043 23.43C6.31873 23.43 5.63562 23.1569 5.05497 22.7133C5.32823 23.8736 5.70393 24.9998 6.1821 26.0576ZM4.85006 20.1197C4.91836 21.3482 5.90886 22.372 7.1726 22.372C8.47051 22.372 9.49516 21.3141 9.49516 20.0514C9.49516 20.0173 9.49516 19.9832 9.49516 19.9832C9.46101 18.7205 8.43636 17.7308 7.1726 17.7308C5.87471 17.7308 4.85006 18.7887 4.85006 20.0855C4.85006 20.0514 4.85006 20.0855 4.85006 20.1197ZM52.3258 10.1207H57.4493L62.231 23.1569H62.2993L67.0128 10.1207H72.136V28.4807H68.8911V13.738H68.8571L63.2898 28.4807H61.0012L55.5022 13.738H55.4682V28.4807H52.3601L52.3258 10.1207ZM81.0847 10.1207H93.2438V12.9873H84.3636V17.6626H92.7998V20.3927H84.3294V25.5798H93.6878V28.4807H81.0505L81.0847 10.1207ZM107.726 18.038C108.204 18.038 108.648 18.0038 109.126 17.9356C109.57 17.8673 109.98 17.7308 110.39 17.5602C110.766 17.3554 111.073 17.0824 111.312 16.7412C111.551 16.3999 111.688 15.9221 111.688 15.3761C111.688 14.8642 111.585 14.4547 111.346 14.1476C111.107 13.8404 110.834 13.5674 110.492 13.3968C110.117 13.192 109.741 13.0555 109.297 13.0214C108.887 12.9532 108.443 12.919 107.999 12.919H105.027V18.0721C105.062 18.038 107.726 18.038 107.726 18.038ZM101.783 10.1207H108.17C109.024 10.1207 109.878 10.223 110.697 10.3937C111.483 10.5643 112.2 10.8714 112.849 11.281C113.464 11.6905 114.01 12.2706 114.352 12.919C114.728 13.6015 114.933 14.4206 114.933 15.3761C114.933 16.707 114.557 17.7991 113.805 18.6181C113.054 19.4713 112.029 20.0173 110.731 20.3244L115.616 28.4464H111.688L107.452 20.6657H105.062V28.4464H101.783V10.1207ZM136.245 14.4206C135.767 13.7722 135.118 13.2603 134.367 12.9873C133.65 12.6801 132.864 12.5436 132.078 12.5436C131.19 12.5436 130.302 12.7143 129.483 13.0555C128.731 13.3968 128.048 13.8746 127.467 14.4888C126.887 15.1031 126.443 15.8198 126.17 16.6047C125.862 17.4578 125.691 18.3451 125.726 19.2324C125.726 20.222 125.862 21.1434 126.17 21.9625C126.477 22.7816 126.887 23.4982 127.433 24.1124C127.98 24.6927 128.629 25.1704 129.38 25.5116C130.132 25.8529 130.985 25.9893 131.942 25.9893C132.932 25.9893 133.786 25.7847 134.572 25.4093C135.289 25.0338 135.938 24.522 136.416 23.8736L139.046 25.7164C138.26 26.7402 137.236 27.5251 136.075 28.0711C134.913 28.6171 133.513 28.9242 131.942 28.9242C130.507 28.9242 129.175 28.6853 127.98 28.2076C126.818 27.764 125.76 27.0813 124.872 26.2282C123.984 25.3409 123.301 24.3171 122.856 23.1569C122.378 21.9625 122.139 20.6657 122.139 19.2324C122.139 17.765 122.378 16.434 122.891 15.2396C123.403 14.0452 124.086 13.0555 124.974 12.2365C125.896 11.3833 126.955 10.7349 128.116 10.3254C129.961 9.64291 131.976 9.47226 133.889 9.81353C134.538 9.91591 135.152 10.0865 135.733 10.3254C136.314 10.5643 136.86 10.8373 137.407 11.1786C137.919 11.5198 138.363 11.9294 138.739 12.4071C138.739 12.4754 136.245 14.4206 136.245 14.4206ZM160.564 21.7236C160.564 22.8156 160.359 23.8393 159.983 24.7267C159.642 25.5798 159.095 26.3647 158.412 26.9791C157.729 27.5933 156.943 28.1051 156.09 28.4124C155.167 28.7536 154.143 28.9242 153.152 28.9242C152.162 28.9242 151.171 28.7536 150.215 28.4124C149.361 28.1051 148.541 27.5933 147.858 26.9791C147.175 26.3307 146.663 25.5798 146.287 24.7267C145.911 23.8393 145.741 22.8498 145.741 21.7236V10.1207H149.02V21.5871C149.02 22.1331 149.088 22.6451 149.225 23.1911C149.361 23.7029 149.6 24.1807 149.908 24.5902C150.215 24.9998 150.659 25.3409 151.171 25.614C151.684 25.8871 152.367 25.9893 153.118 25.9893C153.904 25.9893 154.553 25.8529 155.065 25.614C155.577 25.3751 155.987 25.0338 156.329 24.5902C156.636 24.1807 156.875 23.7029 157.012 23.1911C157.148 22.6791 157.217 22.1331 157.217 21.5871V10.1207H160.496C160.564 10.1207 160.564 21.7236 160.564 21.7236ZM175.285 18.038C175.763 18.038 176.207 18.0038 176.685 17.9356C177.163 17.8673 177.573 17.7308 177.949 17.5602C178.325 17.3554 178.632 17.0824 178.871 16.7412C179.11 16.3999 179.247 15.9221 179.247 15.3761C179.247 14.8642 179.144 14.4547 178.905 14.1476C178.7 13.8404 178.393 13.5674 178.051 13.3968C177.676 13.192 177.3 13.0555 176.856 13.0214C176.446 12.9532 176.002 12.919 175.558 12.919H172.587V18.0721C172.621 18.038 175.285 18.038 175.285 18.038ZM169.342 10.1207H175.729C176.583 10.1207 177.437 10.223 178.256 10.3937C179.042 10.5643 179.759 10.8714 180.408 11.281C181.023 11.6905 181.535 12.2365 181.911 12.919C182.287 13.6015 182.492 14.4206 182.492 15.3761C182.492 16.707 182.116 17.7991 181.365 18.6181C180.613 19.4713 179.589 20.0173 178.29 20.3244L183.175 28.4464H179.247L175.012 20.6657H172.621V28.4464H169.342C169.342 28.4807 169.342 10.1207 169.342 10.1207ZM194.822 20.5292L187.922 10.1548H191.919L196.53 17.8673L201.209 10.1548H205L198.101 20.5292V28.4807H194.822V20.5292Z" fill="#FFFEF1"/>
</svg>
