<svg width="136" height="43" viewBox="0 0 136 43" fill="none" xmlns="http://www.w3.org/2000/svg">
<path d="M18.7 1.84363C8.37224 1.84363 0 10.463 0 21.0956C0 31.7281 8.37224 40.3475 18.7 40.3475C27.9659 40.3475 35.6577 33.4095 37.1414 24.3042H37.0072C35.6233 29.8399 30.7423 33.9302 24.9333 33.9302C18.0482 33.9302 12.4667 28.1839 12.4667 21.0956C12.4667 14.0072 18.0482 8.26094 24.9333 8.26094C30.7423 8.26094 35.6233 12.3512 37.0072 17.8869H37.1414C35.6577 8.78166 27.9659 1.84363 18.7 1.84363Z" fill="#A4BCFD"/>
<path d="M0 21.0956C0 10.463 8.37227 1.84363 18.7 1.84363C27.9658 1.84363 35.6577 8.78166 37.1414 17.8869H24.5406C23.1566 12.3512 18.2756 8.26094 12.4667 8.26094C5.58152 8.26094 0 14.0072 0 21.0956Z" fill="#3538CD"/>
<path d="M0 21.0955C0 31.728 8.37227 40.3474 18.7 40.3474C27.9658 40.3474 35.6577 33.4094 37.1414 24.3041H24.5406C23.1566 29.8398 18.2756 33.9301 12.4667 33.9301C5.58152 33.9301 0 28.1838 0 21.0955Z" fill="#3538CD"/>
<path d="M64.123 18.039C63.5905 14.0799 60.6324 11.7828 56.7954 11.7828C52.2737 11.7828 48.8677 15.1763 48.8677 20.9365C48.8677 26.6879 52.2315 30.0901 56.7954 30.0901C60.9113 30.0901 63.6412 27.3492 64.123 23.9471L60.9621 23.9297C60.5648 26.0179 58.9083 27.1926 56.8376 27.1926C54.0317 27.1926 52.0202 25.026 52.0202 20.9365C52.0202 16.9165 54.0148 14.6803 56.8461 14.6803C58.9506 14.6803 60.5986 15.9072 60.9621 18.039H64.123Z" fill="white"/>
<path d="M70.5949 30.1162C72.6317 30.1162 73.8488 29.1329 74.4066 28.0105H74.508V29.8464H77.4492V20.9017C77.4492 17.369 74.6517 16.3074 72.1754 16.3074C69.4455 16.3074 67.3494 17.5604 66.6733 19.9967L69.53 20.4144C69.8342 19.5008 70.6963 18.7177 72.1923 18.7177C73.6121 18.7177 74.3897 19.466 74.3897 20.7798V20.832C74.3897 21.737 73.4685 21.7805 71.1781 22.0328C68.6594 22.3112 66.2507 23.0856 66.2507 26.0962C66.2507 28.724 68.1185 30.1162 70.5949 30.1162ZM71.3893 27.8017C70.1131 27.8017 69.2004 27.2013 69.2004 26.044C69.2004 24.8346 70.223 24.3299 71.5922 24.1298C72.3951 24.0167 74.0009 23.8078 74.3981 23.4772V25.0521C74.3981 26.54 73.2318 27.8017 71.3893 27.8017Z" fill="white"/>
<path d="M87.0081 16.4815H84.4472V13.2794H81.3877V16.4815H79.5452V18.9178H81.3877V26.3486C81.3708 28.8632 83.1457 30.0988 85.4445 30.0292C86.315 30.0031 86.9151 29.829 87.2447 29.7159L86.7292 27.2535C86.5601 27.297 86.2136 27.3753 85.8333 27.3753C85.0642 27.3753 84.4472 27.0969 84.4472 25.8265V18.9178H87.0081V16.4815Z" fill="white"/>
<path d="M93.3025 30.1162C95.3393 30.1162 96.5564 29.1329 97.1142 28.0105H97.2156V29.8464H100.157V20.9017C100.157 17.369 97.3593 16.3074 94.883 16.3074C92.1531 16.3074 90.057 17.5604 89.3809 19.9967L92.2376 20.4144C92.5418 19.5008 93.4039 18.7177 94.8999 18.7177C96.3197 18.7177 97.0973 19.466 97.0973 20.7798V20.832C97.0973 21.737 96.1761 21.7805 93.8857 22.0328C91.367 22.3112 88.9583 23.0856 88.9583 26.0962C88.9583 28.724 90.8261 30.1162 93.3025 30.1162ZM94.0969 27.8017C92.8207 27.8017 91.908 27.2013 91.908 26.044C91.908 24.8346 92.9306 24.3299 94.2998 24.1298C95.1027 24.0167 96.7085 23.8078 97.1058 23.4772V25.0521C97.1058 26.54 95.9394 27.8017 94.0969 27.8017Z" fill="white"/>
<path d="M106.293 12.0265H103.233V29.8464H106.293V12.0265Z" fill="white"/>
<path d="M115.102 30.1075C118.905 30.1075 121.322 27.3492 121.322 23.2162C121.322 19.0744 118.905 16.3074 115.102 16.3074C111.298 16.3074 108.881 19.0744 108.881 23.2162C108.881 27.3492 111.298 30.1075 115.102 30.1075ZM115.118 27.5841C113.014 27.5841 111.983 25.6525 111.983 23.2075C111.983 20.7624 113.014 18.8047 115.118 18.8047C117.189 18.8047 118.22 20.7624 118.22 23.2075C118.22 25.6525 117.189 27.5841 115.118 27.5841Z" fill="white"/>
<path d="M129.565 35.1367C133.072 35.1367 135.658 33.4835 135.658 30.064V16.4815H132.641V18.6916H132.472C132.007 17.7257 131.035 16.3074 128.745 16.3074C125.744 16.3074 123.386 18.7264 123.386 23.1204C123.386 27.4797 125.744 29.655 128.736 29.655C130.959 29.655 131.999 28.4282 132.472 27.4449H132.624V29.977C132.624 31.9434 131.356 32.7526 129.615 32.7526C127.773 32.7526 126.961 31.8564 126.59 31.0733L123.834 31.7607C124.392 33.6314 126.26 35.1367 129.565 35.1367ZM129.59 27.1839C127.57 27.1839 126.505 25.5655 126.505 23.103C126.505 20.6754 127.553 18.8917 129.59 18.8917C131.559 18.8917 132.641 20.571 132.641 23.103C132.641 25.6525 131.542 27.1839 129.59 27.1839Z" fill="white"/>
</svg>
