<svg width="204" height="40" viewBox="0 0 204 40" fill="none" xmlns="http://www.w3.org/2000/svg">
<path d="M24.5399 32.644C24.8798 30.6307 24.166 28.5489 22.6364 27.1838C21.5488 26.16 20.0873 25.5798 18.5918 25.5798C17.7081 25.5798 16.8584 25.3751 16.0766 24.9656C15.057 24.4196 14.2413 23.5664 13.6974 22.5427C14.0033 21.7577 14.1393 20.9046 14.1393 19.9832C14.1393 22.4744 16.1106 24.4878 18.5578 24.4878H18.6598C21.073 24.4538 23.0103 22.4402 23.0103 19.9832C23.0103 19.0959 23.1803 18.2427 23.4522 17.4237C23.9281 16.161 24.7437 15.0348 25.8314 14.2158C27.157 13.192 28.7883 12.7143 30.4199 12.7825C29.2642 10.8032 27.6329 9.131 25.6615 7.93657C25.6615 8.03895 25.6615 8.17546 25.6615 8.27784C25.6615 9.84766 25.1517 11.3492 24.2339 12.6119C23.962 12.373 23.6562 12.1682 23.3502 11.9976C24.166 10.9397 24.5738 9.64288 24.5738 8.31197C24.5738 7.52706 24.4379 6.74215 24.1319 5.99137C23.2482 3.80731 21.1749 2.27162 18.7278 2.20336H18.5578H18.3879C16.8924 2.20336 15.4309 2.40813 14.0033 2.81764C7.98734 4.45571 3.26291 9.26751 1.66545 15.3761C0.645784 16.6388 0.0339886 18.1745 0 19.8125C0.101966 9.54051 8.25924 1.21371 18.3879 1.11133H18.5918C18.6938 1.11133 18.7617 1.11133 18.8637 1.11133C28.9244 1.28196 37.0477 9.54051 37.1497 19.8125C37.1497 19.8808 37.1497 19.949 37.1497 20.0173C37.1497 20.0855 37.1497 20.1538 37.1497 20.222C37.1156 21.8601 36.5379 23.3958 35.4841 24.6584C34.5324 25.8187 33.2069 26.672 31.7454 27.0131C31.2016 27.1498 30.6239 27.218 30.08 27.218C28.5505 27.218 27.055 26.706 25.8314 25.7847C25.3895 26.3989 24.8457 26.9109 24.268 27.3887C25.2537 28.7196 25.7635 30.3918 25.6615 32.0638C27.6329 30.8693 29.2642 29.1973 30.4199 27.218C30.8617 27.1838 31.3036 27.1156 31.7454 27.0131C30.3519 29.7433 28.1427 31.9616 25.4575 33.3947C23.3502 34.5209 20.971 35.1011 18.5918 35.1011C17.5382 35.1011 16.5525 34.5891 15.9407 33.7702C15.4988 33.156 15.2609 32.4393 15.2609 31.6884C15.2609 30.6647 15.7368 29.7091 16.4505 29.0949C17.1303 29.2656 17.878 29.3678 18.6258 29.3678C17.3682 29.3678 16.3146 30.4258 16.3146 31.7227C16.3146 33.0193 17.3342 34.0773 18.6258 34.0773H18.6598C19.9174 34.0773 20.971 33.0193 20.971 31.7227C20.971 30.4258 19.9514 29.3678 18.6598 29.3678C16.9603 29.3678 15.3289 28.8902 13.8674 28.0029C13.5615 27.798 13.2556 27.5933 12.9837 27.3887C12.3719 26.9109 11.862 26.3647 11.3862 25.7847C11.6581 25.5798 11.93 25.3409 12.2019 25.068C12.8477 25.9211 13.6634 26.672 14.6151 27.218C15.8387 27.9347 17.2323 28.31 18.6598 28.31C19.4755 28.31 20.2572 28.6171 20.8351 29.1289C21.5488 29.7433 22.0246 30.6989 22.0246 31.7227C22.0246 32.4733 21.7868 33.19 21.3449 33.8042C22.4665 33.5653 23.5542 33.2242 24.5738 32.7122L24.5399 32.644ZM32.1194 17.2872C31.9154 16.1269 31.5414 15.0348 31.0317 13.9769C29.4003 13.7039 27.7347 14.1476 26.4432 15.1372C24.9477 16.2975 24.064 18.1062 24.064 20.0173C24.064 20.9387 23.86 21.7918 23.4522 22.5767C22.9424 23.6004 22.0926 24.4538 21.107 24.9998C22.0246 25.3409 22.8404 25.8869 23.5542 26.5696C24.4038 25.9211 25.1176 25.068 25.6274 24.1467C26.3412 22.884 26.7151 21.4847 26.7151 20.0173C26.7151 19.1641 27.0209 18.4134 27.5309 17.7991C28.1765 17.0483 29.0943 16.6047 30.08 16.6047C30.8277 16.6047 31.5414 16.8435 32.1194 17.2872ZM32.3572 19.9149C32.3232 18.6863 31.3036 17.6967 30.0459 17.6626C28.7544 17.6626 27.7347 18.7205 27.7347 19.9832C27.7347 20.0173 27.7347 20.0514 27.7347 20.0514C27.7687 21.3141 28.7883 22.3038 30.0459 22.3038C31.3377 22.3038 32.3572 21.2458 32.3572 19.9832C32.3572 19.9832 32.3572 19.949 32.3572 19.9149ZM27.5309 22.2356C27.2928 23.1569 26.953 24.0782 26.4432 24.8973C27.7347 25.9211 29.4003 26.3307 31.0317 26.0576C31.4735 25.9893 31.9154 25.8529 32.3572 25.6822C34.5665 24.7609 36.0279 22.6109 36.0961 20.1879V19.8808C36.0961 18.3792 35.8921 16.8777 35.4841 15.4102C33.8868 9.33575 29.1622 4.52395 23.1803 2.85175C24.3359 3.84142 25.1176 5.17235 25.4915 6.63977V6.67391C28.6184 8.34608 31.0317 11.0762 32.3572 14.3864C33.071 16.1269 33.4449 18.038 33.4449 20.0514C33.4449 21.1434 32.9349 22.1331 32.1194 22.7473C31.5414 23.1911 30.8277 23.464 30.08 23.464C29.0602 23.43 28.1427 22.9522 27.5309 22.2356ZM18.3199 38.8891C8.25924 38.7184 0.135955 30.4258 0.0339888 20.1879V19.9832V19.7784C0.0679774 18.1403 0.645784 16.6046 1.69943 15.342C2.65111 14.1817 3.97668 13.3627 5.43818 12.9873C5.982 12.8508 6.55982 12.7825 7.10363 12.7825C8.63313 12.7825 10.1286 13.2944 11.3522 14.2158C11.7941 13.6016 12.3379 13.0896 12.9157 12.6119C11.93 11.281 11.4202 9.60877 11.4882 7.93657C9.51684 9.131 7.88538 10.8032 6.72976 12.7825C6.28791 12.8166 5.84605 12.8849 5.4042 12.9873C6.79774 10.2572 9.00699 8.03895 11.6921 6.60564C13.7994 5.47948 16.1786 4.89933 18.5578 4.89933C19.6115 4.89933 20.5971 5.41124 21.2089 6.23026C21.6508 6.81042 21.8888 7.52706 21.8888 8.31197C21.8888 9.36988 21.4129 10.2913 20.6991 10.9056C19.9853 10.7349 19.2716 10.6326 18.5238 10.6326C19.7814 10.6326 20.8351 9.57464 20.8351 8.27784C20.8351 6.98104 19.8154 5.92313 18.5238 5.92313H18.4898C17.2322 5.92313 16.1786 6.98104 16.1786 8.27784C16.1786 9.57464 17.1983 10.6326 18.4898 10.6326C20.1893 10.6326 21.8206 11.1103 23.2823 11.9976C23.588 12.2024 23.894 12.4071 24.166 12.6119C24.7437 13.0896 25.2875 13.6357 25.7635 14.2158C25.4915 14.4206 25.2196 14.6595 24.9477 14.9325C24.3018 14.0793 23.4863 13.3285 22.5344 12.7825C21.3109 12.0659 19.9174 11.6905 18.4898 11.6905C17.7081 11.6905 16.9264 11.3833 16.3146 10.8714C15.5668 10.223 15.125 9.26751 15.125 8.27784C15.125 7.49295 15.3969 6.77628 15.8047 6.19615C14.6831 6.43502 13.5615 6.81042 12.5418 7.28817C12.2019 9.30162 12.9157 11.3833 14.4452 12.7484C15.5328 13.7722 16.9943 14.3523 18.4898 14.3523C19.3735 14.3523 20.2233 14.5571 21.005 14.9666C22.0246 15.5126 22.8404 16.3658 23.3843 17.3896C23.0783 18.2086 22.9083 19.0618 22.9424 19.949C22.9424 17.4578 20.971 15.4444 18.5238 15.4444H18.4898C16.0766 15.4785 14.1393 17.4919 14.1393 19.949C14.1393 20.8363 13.9693 21.6895 13.6974 22.5084C13.2216 23.7711 12.4059 24.8973 11.3182 25.7164C9.99268 26.7402 8.36122 27.218 6.72976 27.1498C7.88538 29.1289 9.51684 30.8011 11.4882 31.9956C11.4202 30.3233 11.896 28.6853 12.8817 27.3544C13.1536 27.5933 13.4595 27.798 13.7654 27.9687C12.9497 29.0267 12.5418 30.3233 12.5418 31.6544C12.5418 32.4393 12.6778 33.2242 12.9837 33.9749C13.8674 36.1591 15.9407 37.6947 18.3879 37.7629H18.6938C20.1893 37.7629 21.6508 37.5582 23.0783 37.1487C29.0943 35.5107 33.8186 30.6989 35.4161 24.5902C36.4359 23.3276 37.0477 21.7918 37.0816 20.1538C36.9798 30.4258 28.8224 38.7527 18.6938 38.8549H18.4898H18.2859C18.3879 38.8891 18.3199 38.8891 18.3199 38.8891ZM14.0033 37.1829C12.8477 36.1931 12.066 34.8622 11.6921 33.3947C11.6921 33.3947 11.6921 33.3949 11.6921 33.3607C8.56514 31.6884 6.15195 28.9584 4.8264 25.6482C4.11262 23.8393 3.73876 21.9284 3.73876 19.9832C3.73876 18.8911 4.24858 17.9015 5.06432 17.2872C5.64212 16.8435 6.3219 16.5705 7.10363 16.5705C8.1233 16.5705 9.04098 17.0483 9.65278 17.765C9.8907 16.8094 10.2306 15.9221 10.7404 15.1031C9.44885 14.0793 7.7834 13.6698 6.15195 13.9428C5.6761 14.011 5.26823 14.1476 4.8264 14.3182C2.61712 15.2396 1.15561 17.3896 1.08764 19.8125C1.08764 19.8808 1.08764 19.9149 1.08764 19.9832V20.1538C1.08764 21.6554 1.29157 23.1569 1.69943 24.6242C3.33089 30.7329 8.02132 35.5447 14.0033 37.1829ZM6.15195 26.0576C7.7834 26.3307 9.44885 25.8869 10.7404 24.8973C12.2359 23.7371 13.1196 21.9284 13.1196 20.0173C13.1196 19.0959 13.3236 18.2427 13.7314 17.4578C14.2413 16.434 15.091 15.5809 16.0766 15.0348H16.0426C15.125 14.6936 14.3092 14.1476 13.5955 13.465C12.7457 14.1134 12.032 14.9666 11.5222 15.888C10.8084 17.1507 10.4345 18.5499 10.4345 20.0173C10.4345 20.8704 10.1286 21.6212 9.6188 22.2356C8.97301 22.9862 8.05531 23.43 7.06964 23.43C6.28791 23.43 5.60813 23.1569 5.03031 22.7133C5.30224 23.8736 5.6761 24.9998 6.15195 26.0576ZM4.8264 20.1197C4.89437 21.3482 5.88004 22.372 7.13761 22.372C8.42919 22.372 9.44885 21.3141 9.44885 20.0514C9.44885 20.0173 9.44885 19.9832 9.44885 19.9832C9.41486 18.7205 8.39521 17.7308 7.13761 17.7308C5.84605 17.7308 4.8264 18.7887 4.8264 20.0855C4.8264 20.0514 4.8264 20.0855 4.8264 20.1197ZM52.0706 10.1207H57.169L61.9275 23.1569H61.9954L66.6859 10.1207H71.7841V28.4807H68.5551V13.738H68.5212L62.9811 28.4807H60.7037L55.2315 13.738H55.1976V28.4807H52.1046L52.0706 10.1207ZM80.6892 10.1207H92.789V12.9873H83.9521V17.6626H92.3471V20.3927H83.918V25.5798H93.2308V28.4807H80.6551L80.6892 10.1207ZM107.2 18.038C107.676 18.038 108.118 18.0038 108.594 17.9356C109.036 17.8673 109.444 17.7308 109.851 17.5602C110.225 17.3554 110.531 17.0824 110.769 16.7412C111.007 16.3999 111.143 15.9221 111.143 15.3761C111.143 14.8642 111.041 14.4547 110.803 14.1476C110.565 13.8404 110.293 13.5674 109.953 13.3968C109.579 13.192 109.206 13.0555 108.764 13.0214C108.356 12.9532 107.914 12.919 107.472 12.919H104.515V18.0721C104.549 18.038 107.2 18.038 107.2 18.038ZM101.286 10.1207H107.642C108.492 10.1207 109.342 10.223 110.157 10.3937C110.939 10.5643 111.653 10.8714 112.299 11.281C112.91 11.6905 113.454 12.2706 113.794 12.919C114.168 13.6015 114.372 14.4206 114.372 15.3761C114.372 16.707 113.998 17.7991 113.25 18.6181C112.503 19.4713 111.483 20.0173 110.191 20.3244L115.052 28.4464H111.143L106.928 20.6657H104.549V28.4464H101.286V10.1207ZM135.581 14.4206C135.105 13.7722 134.459 13.2603 133.711 12.9873C132.998 12.6801 132.216 12.5436 131.434 12.5436C130.55 12.5436 129.667 12.7143 128.851 13.0555C128.103 13.3968 127.424 13.8746 126.846 14.4888C126.268 15.1031 125.826 15.8198 125.554 16.6047C125.248 17.4578 125.078 18.3451 125.112 19.2324C125.112 20.222 125.248 21.1434 125.554 21.9625C125.86 22.7816 126.268 23.4982 126.812 24.1124C127.355 24.6927 128.001 25.1704 128.749 25.5116C129.497 25.8529 130.346 25.9893 131.298 25.9893C132.284 25.9893 133.134 25.7847 133.915 25.4093C134.629 25.0338 135.275 24.522 135.751 23.8736L138.368 25.7164C137.586 26.7402 136.566 27.5251 135.411 28.0711C134.255 28.6171 132.862 28.9242 131.298 28.9242C129.871 28.9242 128.545 28.6853 127.355 28.2076C126.2 27.764 125.146 27.0813 124.262 26.2282C123.379 25.3409 122.699 24.3171 122.257 23.1569C121.781 21.9625 121.543 20.6657 121.543 19.2324C121.543 17.765 121.781 16.434 122.291 15.2396C122.801 14.0452 123.481 13.0555 124.364 12.2365C125.282 11.3833 126.336 10.7349 127.492 10.3254C129.327 9.64291 131.332 9.47226 133.236 9.81353C133.881 9.91591 134.493 10.0865 135.071 10.3254C135.649 10.5643 136.193 10.8373 136.736 11.1786C137.246 11.5198 137.688 11.9294 138.062 12.4071C138.062 12.4754 135.581 14.4206 135.581 14.4206ZM159.781 21.7236C159.781 22.8156 159.577 23.8393 159.203 24.7267C158.863 25.5798 158.319 26.3647 157.639 26.9791C156.96 27.5933 156.178 28.1051 155.328 28.4124C154.41 28.7536 153.391 28.9242 152.405 28.9242C151.419 28.9242 150.434 28.7536 149.482 28.4124C148.632 28.1051 147.817 27.5933 147.137 26.9791C146.457 26.3307 145.947 25.5798 145.574 24.7267C145.2 23.8393 145.03 22.8498 145.03 21.7236V10.1207H148.293V21.5871C148.293 22.1331 148.361 22.6451 148.497 23.1911C148.632 23.7029 148.87 24.1807 149.176 24.5902C149.482 24.9998 149.924 25.3409 150.434 25.614C150.944 25.8871 151.623 25.9893 152.371 25.9893C153.153 25.9893 153.799 25.8529 154.309 25.614C154.818 25.3751 155.226 25.0338 155.566 24.5902C155.872 24.1807 156.11 23.7029 156.246 23.1911C156.382 22.6791 156.45 22.1331 156.45 21.5871V10.1207H159.713C159.781 10.1207 159.781 21.7236 159.781 21.7236ZM174.43 18.038C174.906 18.038 175.348 18.0038 175.823 17.9356C176.299 17.8673 176.707 17.7308 177.081 17.5602C177.455 17.3554 177.761 17.0824 177.999 16.7412C178.237 16.3999 178.373 15.9221 178.373 15.3761C178.373 14.8642 178.271 14.4547 178.033 14.1476C177.829 13.8404 177.523 13.5674 177.183 13.3968C176.809 13.192 176.435 13.0555 175.993 13.0214C175.585 12.9532 175.144 12.919 174.702 12.919H171.745V18.0721C171.779 18.038 174.43 18.038 174.43 18.038ZM168.516 10.1207H174.872C175.721 10.1207 176.571 10.223 177.387 10.3937C178.169 10.5643 178.882 10.8714 179.528 11.281C180.14 11.6905 180.65 12.2365 181.024 12.919C181.397 13.6015 181.601 14.4206 181.601 15.3761C181.601 16.707 181.228 17.7991 180.48 18.6181C179.732 19.4713 178.712 20.0173 177.421 20.3244L182.281 28.4464H178.373L174.158 20.6657H171.779V28.4464H168.516C168.516 28.4807 168.516 10.1207 168.516 10.1207ZM193.871 20.5292L187.006 10.1548H190.982L195.571 17.8673L200.227 10.1548H204L197.134 20.5292V28.4807H193.871V20.5292Z" fill="#FFFEF1"/>
</svg>
