<svg width="40" height="40" viewBox="0 0 40 40" fill="none" xmlns="http://www.w3.org/2000/svg">
<path d="M19.9003 3.68321L15.8837 13.0332H11.867C11.2003 13.0332 10.5503 13.0832 9.91699 13.2165L11.5837 9.21655L11.6503 9.06655L11.7503 8.79988C11.8003 8.68321 11.8337 8.58321 11.8837 8.49988C13.817 4.01655 15.9837 2.61655 19.9003 3.68321Z" fill="#10121D"/>
<path d="M31.2169 13.4833L31.1835 13.4666C30.1835 13.1833 29.1669 13.0333 28.1335 13.0333H17.7002L21.4502 4.31662L21.5002 4.19995C21.7335 4.28328 21.9835 4.39995 22.2335 4.48328L25.9169 6.03328C27.9669 6.88328 29.4002 7.76662 30.2835 8.83328C30.4335 9.03329 30.5669 9.21662 30.7002 9.43328C30.8502 9.66662 30.9669 9.89995 31.0335 10.15C31.1002 10.3 31.1502 10.4333 31.1835 10.5833C31.4335 11.4333 31.4502 12.4 31.2169 13.4833Z" fill="#10121D"/>
<path d="M20.8662 29.4332H21.2829C21.7829 29.4332 22.1995 28.9832 22.1995 28.4332C22.1995 27.7332 21.9995 27.6332 21.5662 27.4666L20.8662 27.2166V29.4332Z" fill="#10121D"/>
<path d="M30.4834 15.8668C29.7334 15.6501 28.9501 15.5334 28.1334 15.5334H11.8667C10.7334 15.5334 9.66673 15.7501 8.66673 16.1834C5.76673 17.4334 3.7334 20.3168 3.7334 23.6668V26.9168C3.7334 27.3168 3.76673 27.7001 3.81673 28.1001C4.1834 33.4001 7.01673 36.2334 12.3167 36.5835C12.7001 36.6334 13.0834 36.6668 13.5001 36.6668H26.5001C32.6667 36.6668 35.9167 33.7334 36.2334 27.9001C36.2501 27.5834 36.2667 27.2501 36.2667 26.9168V23.6668C36.2667 19.9834 33.8167 16.8834 30.4834 15.8668ZM22.1334 25.8334C22.9001 26.1001 23.9334 26.6668 23.9334 28.4334C23.9334 29.9501 22.7501 31.1668 21.2834 31.1668H20.8667V31.5334C20.8667 32.0168 20.4834 32.4001 20.0001 32.4001C19.5167 32.4001 19.1334 32.0168 19.1334 31.5334V31.1668H18.9834C17.3834 31.1668 16.0667 29.8168 16.0667 28.1501C16.0667 27.6668 16.4501 27.2835 16.9334 27.2835C17.4167 27.2835 17.8001 27.6668 17.8001 28.1501C17.8001 28.8501 18.3334 29.4334 18.9834 29.4334H19.1334V26.6168L17.8667 26.1668C17.1001 25.9001 16.0667 25.3334 16.0667 23.5668C16.0667 22.0501 17.2501 20.8334 18.7167 20.8334H19.1334V20.4668C19.1334 19.9834 19.5167 19.6001 20.0001 19.6001C20.4834 19.6001 20.8667 19.9834 20.8667 20.4668V20.8334H21.0167C22.6167 20.8334 23.9334 22.1834 23.9334 23.8501C23.9334 24.3334 23.5501 24.7168 23.0667 24.7168C22.5834 24.7168 22.2001 24.3334 22.2001 23.8501C22.2001 23.1501 21.6667 22.5668 21.0167 22.5668H20.8667V25.3834L22.1334 25.8334Z" fill="#10121D"/>
<path d="M17.7998 23.5667C17.7998 24.2667 17.9998 24.3667 18.4331 24.5333L19.1331 24.7833V22.5667H18.7165C18.1998 22.5667 17.7998 23.0167 17.7998 23.5667Z" fill="#10121D"/>
</svg>
