<svg width="40" height="40" viewBox="0 0 40 40" fill="none" xmlns="http://www.w3.org/2000/svg">
<path d="M23.5499 18.8999C24.1999 16.1666 21.8166 13.7832 19.0832 14.4332C17.7999 14.7499 16.7499 15.7999 16.4332 17.0832C15.7832 19.8166 18.1666 22.1999 20.8999 21.5499C22.1999 21.2332 23.2499 20.1832 23.5499 18.8999Z" fill="#10121D"/>
<path d="M10.0329 29.9499C9.73294 29.9499 9.41628 29.8333 9.18294 29.6166C5.94961 26.6166 4.09961 22.3833 4.09961 17.9833C4.09961 9.21659 11.2329 2.08325 19.9996 2.08325C28.7663 2.08325 35.8996 9.21659 35.8996 17.9833C35.8996 22.4166 34.1163 26.5166 30.8829 29.5666C30.3829 30.0333 29.5829 30.0166 29.1163 29.5166C28.6496 29.0166 28.6663 28.2166 29.1663 27.7499C31.8996 25.1833 33.3996 21.7333 33.3996 17.9999C33.3996 10.6166 27.3829 4.59992 19.9996 4.59992C12.6163 4.59992 6.59961 10.6166 6.59961 17.9999C6.59961 21.7666 8.11628 25.2333 10.8829 27.7999C11.3829 28.2666 11.4163 29.0666 10.9496 29.5666C10.6996 29.8166 10.3663 29.9499 10.0329 29.9499Z" fill="#10121D"/>
<path d="M26.6662 25.5001C26.3662 25.5001 26.0495 25.3834 25.8162 25.1668C25.3162 24.7001 25.2829 23.9001 25.7662 23.4001C27.1495 21.9334 27.9162 20.0001 27.9162 18.0001C27.9162 13.6334 24.3662 10.1001 20.0162 10.1001C15.6662 10.1001 12.1162 13.6501 12.1162 18.0001C12.1162 20.0168 12.8829 21.9334 14.2662 23.4001C14.7329 23.9001 14.7162 24.7001 14.2162 25.1668C13.7162 25.6501 12.9162 25.6168 12.4495 25.1168C10.6329 23.1834 9.61621 20.6501 9.61621 18.0001C9.61621 12.2668 14.2829 7.6001 20.0162 7.6001C25.7495 7.6001 30.4162 12.2668 30.4162 18.0001C30.4162 20.6501 29.4162 23.1834 27.5829 25.1168C27.3329 25.3668 26.9995 25.5001 26.6662 25.5001Z" fill="#10121D"/>
<path d="M17.1668 27.7667L14.7668 30.75C12.8668 33.1333 14.5668 36.6667 17.6001 36.6667H22.3835C25.4335 36.6667 27.1335 33.1333 25.2168 30.7667L22.8168 27.7833C21.3835 25.95 18.6168 25.95 17.1668 27.7667Z" fill="#10121D"/>
</svg>
