<svg width="36" height="36" viewBox="0 0 36 36" fill="none" xmlns="http://www.w3.org/2000/svg">
<path d="M33 33H3C2.385 33 1.875 32.49 1.875 31.875C1.875 31.26 2.385 30.75 3 30.75H33C33.615 30.75 34.125 31.26 34.125 31.875C34.125 32.49 33.615 33 33 33Z" fill="#10121D"/>
<path d="M14.625 6V33H21.375V6C21.375 4.35 20.7 3 18.675 3H17.325C15.3 3 14.625 4.35 14.625 6Z" fill="#10121D"/>
<path d="M4.5 15V33H10.5V15C10.5 13.35 9.9 12 8.1 12H6.9C5.1 12 4.5 13.35 4.5 15Z" fill="#10121D"/>
<path d="M25.5 22.5V33H31.5V22.5C31.5 20.85 30.9 19.5 29.1 19.5H27.9C26.1 19.5 25.5 20.85 25.5 22.5Z" fill="#10121D"/>
</svg>
