<svg width="140" height="47" viewBox="0 0 140 47" fill="none" xmlns="http://www.w3.org/2000/svg">
<path d="M82.6451 20.2528C84.8045 20.2528 86.8494 21.6152 87.281 24.559H77.6639C78.0664 21.9758 79.9387 20.2528 82.6451 20.2528ZM86.9736 28.9143C86.2391 30.095 84.8195 31.0033 82.8758 31.0033C80.1977 31.0033 78.1527 29.4892 77.6639 26.8161H89.7293C89.7875 26.433 89.8169 26.0458 89.8173 25.658C89.8173 21.5008 86.9992 17.8176 82.6468 17.8176C78.1554 17.8176 75.1029 21.2328 75.1029 25.629C75.1029 30.0796 78.1853 33.4403 82.8194 33.4403C85.6993 33.4403 87.8878 32.1033 89.1542 30.0796L86.9736 28.9143Z" fill="#006BFF"/>
<path d="M73.9173 11.3733H71.4127V33.0533H73.9173V11.3733Z" fill="#006BFF"/>
<path d="M103.754 23.9359V33.0525H101.249V24.084C101.249 21.6488 99.896 20.2828 97.6785 20.2828C95.3746 20.2828 93.5032 21.6788 93.5032 25.183V33.0525H90.9977V18.2055H93.5032V20.3436C94.5688 18.5915 96.1523 17.8195 98.1708 17.8195C101.539 17.8195 103.757 20.1356 103.757 23.9377" fill="#006BFF"/>
<path d="M117.568 25.628C117.568 22.5989 115.35 20.3118 112.442 20.3118C109.562 20.3118 107.346 22.5989 107.346 25.628C107.346 28.6572 109.562 30.9443 112.442 30.9443C115.348 30.9443 117.568 28.6572 117.568 25.628ZM120.072 11.3733V33.0533H117.568V30.4983C116.416 32.3149 114.573 33.4394 112.125 33.4394C108.122 33.4394 104.84 30.0233 104.84 25.628C104.84 21.2328 108.122 17.8167 112.125 17.8167C114.572 17.8167 116.416 18.9448 117.568 20.7569V11.3733H120.072Z" fill="#006BFF"/>
<path d="M124.597 11.3733H122.092V33.0533H124.597V11.3733Z" fill="#006BFF"/>
<path d="M66.9478 25.6281C66.9478 22.5989 64.7311 20.3118 61.8222 20.3118C58.9433 20.3118 56.7257 22.5989 56.7257 25.6281C56.7257 28.6572 58.9433 30.9443 61.8222 30.9443C64.7285 30.9443 66.9478 28.6572 66.9478 25.6281ZM69.4533 18.2055V33.0525H66.9478V30.4984C65.7959 32.3149 63.9535 33.4394 61.5061 33.4394C57.5034 33.4394 54.2202 30.0233 54.2202 25.6281C54.2202 21.2329 57.5034 17.8168 61.5061 17.8168C63.9535 17.8168 65.7959 18.9449 66.9478 20.7569V18.2055H69.4533Z" fill="#006BFF"/>
<path d="M50.5046 30.1949C49.2223 30.683 47.838 30.8148 46.4907 30.577C45.1434 30.3393 43.8804 29.7405 42.8283 28.8405C41.7762 27.9406 40.9719 26.7712 40.4962 25.4496C40.0205 24.128 39.8901 22.7006 40.1179 21.3106C40.3458 19.9206 40.9239 18.6168 41.7945 17.5299C42.665 16.4431 43.7973 15.6113 45.0778 15.1181C46.3582 14.6249 47.742 14.4876 49.0902 14.7198C50.4384 14.9521 51.7036 15.5459 52.7592 16.4416C53.1993 16.8161 53.5975 17.2402 53.9463 17.7059L56.1137 16.071C54.851 14.3686 53.1267 13.0911 51.1593 12.4005C49.1919 11.7099 47.07 11.6373 45.0625 12.1918C43.055 12.7463 41.2524 13.9031 39.883 15.5154C38.5137 17.1277 37.6393 19.1231 37.3707 21.2485C37.1022 23.3739 37.4514 25.5337 38.3743 27.4542C39.2972 29.3746 40.7522 30.9692 42.5548 32.0359C44.3574 33.1026 46.4265 33.5933 48.4998 33.4459C50.5731 33.2984 52.5573 32.5195 54.2008 31.2077L52.7583 28.8552C52.0844 29.4277 51.3227 29.8805 50.5046 30.1949Z" fill="#006BFF"/>
<path d="M136.689 18.2054V26.6326C136.689 29.3575 135.152 31.0832 132.806 31.0832C130.46 31.0832 128.761 29.3575 128.761 26.6326V18.2054H126.226V26.3801C126.226 30.6636 128.815 33.4448 132.806 33.4448C136.258 33.4448 136.797 31.1922 136.797 31.1359V34.1678C136.797 37.1715 135.53 38.8682 132.887 38.8682C131.943 38.873 131.029 38.5237 130.316 37.8854C129.604 37.2471 129.14 36.3632 129.012 35.3985L126.746 36.216C127.07 37.6452 127.854 38.919 128.97 39.8299C130.086 40.7408 131.468 41.2352 132.891 41.2325C136.99 41.2325 139.232 38.4504 139.232 34.1678V18.2054H136.689Z" fill="#006BFF"/>
<path d="M20.3916 26.8552C19.429 27.7362 18.2269 28.8325 16.0472 28.8325H14.7438C13.1665 28.8325 11.7319 28.2412 10.705 27.1695C9.70189 26.1222 9.14971 24.6889 9.14971 23.133V21.2937C9.14971 19.7378 9.70189 18.3045 10.705 17.2573C11.7319 16.1855 13.1665 15.5951 14.7438 15.5951H16.0472C18.2295 15.5951 19.429 16.6905 20.3916 17.5715C21.3912 18.4798 22.2534 19.2737 24.5528 19.2737C24.9035 19.2736 25.2537 19.2447 25.5999 19.1874L25.592 19.1665C25.4543 18.8137 25.2927 18.4714 25.1085 18.1419L23.5717 15.3962C22.8787 14.1584 21.882 13.1305 20.6817 12.4159C19.4815 11.7013 18.12 11.3251 16.7341 11.3252H13.6597C12.2738 11.3251 10.9123 11.7013 9.71206 12.4159C8.51181 13.1305 7.51509 14.1584 6.82207 15.3962L5.28528 18.1419C4.5925 19.3799 4.22778 20.784 4.22778 22.2134C4.22778 23.6427 4.5925 25.0469 5.28528 26.2848L6.82207 29.0306C7.51509 30.2684 8.51181 31.2962 9.71206 32.0108C10.9123 32.7254 12.2738 33.1016 13.6597 33.1015H16.7341C18.12 33.1016 19.4815 32.7254 20.6817 32.0108C21.882 31.2962 22.8787 30.2684 23.5717 29.0306L25.1085 26.2893C25.2927 25.9599 25.4543 25.6175 25.592 25.2648L25.5999 25.2448C25.2538 25.1855 24.9037 25.1551 24.5528 25.154C22.2534 25.154 21.3912 25.9433 20.3916 26.8561" fill="#006BFF"/>
<path d="M16.0468 17.2617H14.7434C12.3427 17.2617 10.7654 19.0302 10.7654 21.2936V23.1329C10.7654 25.3964 12.3427 27.1648 14.7434 27.1648H16.0468C19.5449 27.1648 19.2701 23.4863 24.5524 23.4863C25.0529 23.4857 25.5524 23.5331 26.0443 23.6279C26.2046 22.6921 26.2046 21.7345 26.0443 20.7986C25.5523 20.893 25.0529 20.9404 24.5524 20.9403C19.2684 20.9403 19.5449 17.2617 16.0468 17.2617Z" fill="#006BFF"/>
<path d="M29.0791 24.9725C28.1796 24.293 27.1422 23.8331 26.0452 23.6273C26.0452 23.6373 26.0452 23.6455 26.0452 23.6546C25.9508 24.1969 25.8032 24.728 25.6048 25.2396C26.5111 25.3843 27.3708 25.7495 28.113 26.305C28.113 26.3123 28.1086 26.3213 28.106 26.3295C27.1507 29.5196 25.1177 32.2505 22.3762 34.0261C19.6347 35.8018 16.3666 36.5043 13.1656 36.0061C9.96456 35.5079 7.04297 33.8421 4.93155 31.3112C2.82014 28.7804 1.65896 25.5524 1.65896 22.2136C1.65896 18.8748 2.82014 15.6468 4.93155 13.1159C7.04297 10.5851 9.96456 8.91925 13.1656 8.42108C16.3666 7.9229 19.6347 8.62543 22.3762 10.401C25.1177 12.1767 27.1507 14.9076 28.106 18.0977C28.106 18.1058 28.1104 18.1149 28.113 18.1222C27.371 18.6777 26.5111 19.0427 25.6048 19.1867C25.803 19.699 25.9505 20.2306 26.0452 20.7735C26.0447 20.782 26.0447 20.7905 26.0452 20.7989C27.1421 20.5935 28.1796 20.1339 29.0791 19.4547C29.944 18.7943 29.7766 18.0486 29.6454 17.6072C28.5762 14.0304 26.2982 10.968 23.2256 8.97633C20.1529 6.98468 16.4894 6.196 12.9008 6.75361C9.31215 7.31122 6.03658 9.17812 3.66926 12.0151C1.30195 14.852 0 18.4707 0 22.2136C0 25.9565 1.30195 29.5752 3.66926 32.4121C6.03658 35.2491 9.31215 37.116 12.9008 37.6736C16.4894 38.2312 20.1529 37.4425 23.2256 35.4509C26.2982 33.4592 28.5762 30.3968 29.6454 26.82C29.7766 26.3786 29.944 25.6329 29.0791 24.9725Z" fill="#006BFF"/>
<path d="M25.6004 19.1863C25.2543 19.2456 24.9041 19.276 24.5533 19.2772C22.2538 19.2772 21.3916 18.4878 20.3929 17.575C19.4295 16.694 18.23 15.5977 16.0476 15.5977H14.7442C13.166 15.5977 11.7323 16.189 10.7054 17.2607C9.70233 18.308 9.15015 19.7413 9.15015 21.2972V23.1365C9.15015 24.6924 9.70233 26.1257 10.7054 27.1729C11.7323 28.2447 13.166 28.8351 14.7442 28.8351H16.0476C18.23 28.8351 19.4295 27.7397 20.3929 26.8587C21.3916 25.9504 22.2538 25.1565 24.5533 25.1565C24.904 25.1566 25.2541 25.1855 25.6004 25.2428C25.7992 24.7314 25.9467 24.2003 26.0407 23.6579C26.0412 23.6488 26.0412 23.6397 26.0407 23.6306C25.5487 23.5365 25.0493 23.4894 24.5488 23.4898C19.2648 23.4898 19.5413 27.1693 16.0432 27.1693H14.7398C12.3391 27.1693 10.7618 25.4 10.7618 23.1365V21.2936C10.7618 19.0301 12.3391 17.2616 14.7398 17.2616H16.0432C19.5413 17.2616 19.2665 20.9393 24.5488 20.9393C25.0493 20.9402 25.5487 20.8931 26.0407 20.7985C26.0407 20.7904 26.0407 20.7822 26.0407 20.7731C25.946 20.2303 25.7985 19.6986 25.6004 19.1863Z" fill="#0AE8F0"/>
<path d="M25.6004 19.1863C25.2543 19.2456 24.9041 19.276 24.5533 19.2772C22.2538 19.2772 21.3916 18.4878 20.3929 17.575C19.4295 16.694 18.23 15.5977 16.0476 15.5977H14.7442C13.166 15.5977 11.7323 16.189 10.7054 17.2607C9.70233 18.308 9.15015 19.7413 9.15015 21.2972V23.1365C9.15015 24.6924 9.70233 26.1257 10.7054 27.1729C11.7323 28.2447 13.166 28.8351 14.7442 28.8351H16.0476C18.23 28.8351 19.4295 27.7397 20.3929 26.8587C21.3916 25.9504 22.2538 25.1565 24.5533 25.1565C24.904 25.1566 25.2541 25.1855 25.6004 25.2428C25.7992 24.7314 25.9467 24.2003 26.0407 23.6579C26.0412 23.6488 26.0412 23.6397 26.0407 23.6306C25.5487 23.5365 25.0493 23.4894 24.5488 23.4898C19.2648 23.4898 19.5413 27.1693 16.0432 27.1693H14.7398C12.3391 27.1693 10.7618 25.4 10.7618 23.1365V21.2936C10.7618 19.0301 12.3391 17.2616 14.7398 17.2616H16.0432C19.5413 17.2616 19.2665 20.9393 24.5488 20.9393C25.0493 20.9402 25.5487 20.8931 26.0407 20.7985C26.0407 20.7904 26.0407 20.7822 26.0407 20.7731C25.946 20.2303 25.7985 19.6986 25.6004 19.1863Z" fill="#0AE8F0"/>
</svg>
