<svg width="143" height="48" viewBox="0 0 143 48" fill="none" xmlns="http://www.w3.org/2000/svg">
<path d="M28.8611 15.9925C23.6663 15.9925 19.6073 19.5365 19.6073 24.2808C19.6073 29.0252 23.5638 32.5388 28.8611 32.5388C34.1585 32.5388 38.1839 28.9645 38.1839 24.2505C38.1839 19.5668 34.2274 15.9925 28.8611 15.9925ZM28.8961 29.1196C25.938 29.1196 23.7701 27.055 23.7701 24.2819C23.7701 21.4776 25.9028 19.414 28.8611 19.414C31.8545 19.414 34.021 21.5091 34.021 24.2819C34.021 27.055 31.8545 29.1196 28.8961 29.1196ZM39.3184 19.5983H41.899V32.232H46.0269V16.3005H39.3184V19.5983ZM9.21886 19.4128C11.3866 19.4128 13.1066 20.6144 13.7595 22.4016H18.1288C17.3369 18.5811 13.8283 15.9925 9.2539 15.9925C4.05904 15.9925 0 19.5365 0 24.2819C0 29.0276 3.9565 32.5401 9.2539 32.5401C13.7257 32.5401 17.3032 29.9514 18.095 26.0996H13.7595C13.1403 27.8867 11.4204 29.1196 9.25261 29.1196C6.25926 29.1196 4.16159 27.055 4.16159 24.2819C4.16288 21.4776 6.22681 19.4128 9.21886 19.4128ZM117.75 22.7411L114.723 22.341C113.278 22.1566 112.246 21.7249 112.246 20.7077C112.246 19.5983 113.588 19.0442 115.411 19.0442C117.406 19.0442 118.679 19.8141 118.955 21.0775H122.945C122.497 17.873 119.745 15.9937 115.515 15.9937C111.146 15.9937 108.256 17.9966 108.256 20.8314C108.256 23.5425 110.148 25.1149 113.966 25.6071L116.993 26.0073C118.473 26.1916 119.299 26.7166 119.299 27.7023C119.299 28.9656 117.854 29.4895 115.859 29.4895C113.416 29.4895 112.04 28.596 111.833 27.2404H107.774C108.154 30.3528 110.87 32.5401 115.824 32.5401C120.331 32.5401 123.323 30.691 123.323 27.5169C123.323 24.682 121.156 23.203 117.75 22.7411ZM43.9628 9.73747C42.4492 9.73747 41.3136 10.7232 41.3136 12.0787C41.3136 13.4343 42.4479 14.42 43.9628 14.42C45.4764 14.42 46.6123 13.4343 46.6123 12.0787C46.6123 10.7232 45.4764 9.73747 43.9628 9.73747ZM104.541 21.7553C104.541 18.3046 102.202 15.9937 97.2484 15.9937C92.5703 15.9937 89.9558 18.1203 89.4392 21.3866H93.5334C93.7398 20.1232 94.8405 19.0757 97.1797 19.0757C99.2785 19.0757 100.311 19.9074 100.311 20.9247C100.311 22.25 98.4179 22.5882 96.0788 22.8039C92.9141 23.112 88.9926 24.0978 88.9926 27.7957C88.9926 30.6618 91.3669 32.5098 95.1507 32.5098C98.109 32.5098 99.9665 31.4003 100.896 29.6435C101.033 31.2148 102.341 32.232 104.165 32.232H106.572V28.9353H104.542L104.541 21.7553ZM100.482 25.7612C100.482 27.8878 98.4179 29.4591 95.9061 29.4591C94.3576 29.4591 93.0505 28.8735 93.0505 27.6417C93.0505 26.0703 95.1493 25.6388 97.0757 25.4544C98.9333 25.3004 99.9654 24.9306 100.482 24.2212V25.7612ZM78.5693 15.9925C76.2639 15.9925 74.3376 16.8558 72.9617 18.3034V9.5835H68.8338V32.232H72.8928V30.1368C74.2687 31.6464 76.2302 32.5401 78.5693 32.5401C83.5228 32.5401 87.2727 29.0276 87.2727 24.2819C87.2727 19.5365 83.4539 15.9925 78.5693 15.9925ZM77.9502 29.1196C74.9918 29.1196 72.824 27.055 72.824 24.2819C72.824 21.5091 75.0255 19.414 77.9838 19.414C80.9772 19.414 83.0749 21.4788 83.0749 24.2819C83.0749 27.055 80.9083 29.1196 77.9502 29.1196ZM58.9607 15.9925C56.2775 15.9925 54.5226 16.9782 53.4906 18.3653V16.3005H49.3966V32.2309H53.5245V23.5728C53.5245 21.1382 55.2444 19.4128 57.7898 19.4128C60.1641 19.4128 61.6425 20.9223 61.6425 23.1107V32.232H65.7703V22.8343C65.7716 18.8272 63.4676 15.9925 58.9607 15.9925ZM143 23.7583C143 19.1982 139.285 15.9937 134.296 15.9937C128.999 15.9937 125.111 19.568 125.111 24.2819C125.111 29.2434 129.274 32.5401 134.365 32.5401C138.666 32.5401 142.037 30.2594 142.896 27.0247H138.596C137.977 28.442 136.463 29.2434 134.433 29.2434C131.784 29.2434 129.788 27.7641 129.342 25.1756H142.999L143 23.7583ZM129.583 22.5251C130.237 20.3064 132.095 19.2285 134.228 19.2285C136.567 19.2285 138.356 20.4301 138.768 22.5251H129.583Z" fill="#FFFEF1"/>
</svg>
