<svg width="125" height="47" viewBox="0 0 125 47" fill="none" xmlns="http://www.w3.org/2000/svg">
<path fill-rule="evenodd" clip-rule="evenodd" d="M16.1389 4.92407C7.22215 4.92407 0 12.4323 0 21.7021C0 29.1264 4.61976 35.3972 11.035 37.6203C11.8419 37.7671 12.1445 37.2638 12.1445 36.8233C12.1445 36.4249 12.1243 35.1036 12.1243 33.6984C8.06944 34.4744 7.02041 32.6708 6.69764 31.727C6.51607 31.2446 5.7293 29.7556 5.0434 29.3571C4.47854 29.0425 3.6716 28.2665 5.02323 28.2456C6.29417 28.2246 7.20198 29.462 7.50458 29.9653C8.95708 32.503 11.277 31.7899 12.205 31.3495C12.3462 30.2589 12.7699 29.5249 13.2339 29.1054C9.64298 28.686 5.89069 27.2389 5.89069 20.8213C5.89069 18.9967 6.51608 17.4866 7.54493 16.3122C7.38354 15.8927 6.81868 14.173 7.70632 11.866C7.70632 11.866 9.05795 11.4256 12.1445 13.5857C13.4356 13.2082 14.8074 13.0195 16.1792 13.0195C17.551 13.0195 18.9228 13.2082 20.214 13.5857C23.3005 11.4046 24.6521 11.866 24.6521 11.866C25.5398 14.173 24.9749 15.8927 24.8135 16.3122C25.8424 17.4866 26.4678 18.9757 26.4678 20.8213C26.4678 27.2599 22.6953 28.686 19.1044 29.1054C19.6894 29.6298 20.1938 30.6364 20.1938 32.2094C20.1938 34.4534 20.1736 36.2571 20.1736 36.8233C20.1736 37.2638 20.4762 37.7881 21.2832 37.6203C24.487 36.4959 27.271 34.3552 29.2433 31.4997C31.2156 28.6442 32.2769 25.2176 32.2778 21.7021C32.2778 12.4323 25.0556 4.92407 16.1389 4.92407Z" fill="#208FFF"/>
<path d="M75.2368 29.8005H75.1991C75.2161 29.8005 75.2274 29.82 75.2443 29.822H75.2556L75.2368 29.8024V29.8005ZM75.2443 29.822C75.0692 29.824 74.6286 29.9199 74.1636 29.9199C72.6949 29.9199 72.1865 29.2152 72.1865 28.2952V22.1665H75.1803C75.3498 22.1665 75.4816 22.0099 75.4816 21.7945V18.4669C75.4816 18.2907 75.3309 18.1341 75.1803 18.1341H72.1865V14.0039C72.1865 13.8473 72.0924 13.7495 71.9229 13.7495H67.8559C67.6865 13.7495 67.5923 13.8473 67.5923 14.0039V18.2516C67.5923 18.2516 65.54 18.7801 65.4082 18.7997C65.2576 18.8388 65.1634 18.9758 65.1634 19.1324V21.7945C65.1634 22.0099 65.3141 22.1665 65.4835 22.1665H67.5735V28.5869C67.5735 33.363 70.7744 33.8524 72.9585 33.8524C73.9564 33.8524 75.1615 33.5196 75.3498 33.4217C75.4627 33.3826 75.5192 33.2456 75.5192 33.1085V30.1724C75.5218 30.0891 75.4954 30.0076 75.445 29.9429C75.3945 29.8782 75.3232 29.8346 75.2443 29.82V29.822ZM119.861 25.5137C119.861 21.9707 118.486 21.5009 117.037 21.6575C115.907 21.7358 115.003 22.3231 115.003 22.3231V29.2132C115.003 29.2132 115.926 29.8788 117.3 29.9179C119.239 29.9766 119.861 29.2524 119.861 25.5137ZM124.436 25.2005C124.436 31.9145 122.346 33.8328 118.693 33.8328C115.606 33.8328 113.949 32.2081 113.949 32.2081C113.949 32.2081 113.873 33.1085 113.779 33.226C113.723 33.3434 113.629 33.3826 113.516 33.3826H110.729C110.541 33.3826 110.371 33.226 110.371 33.0498L110.409 11.3027C110.409 11.1265 110.559 10.9699 110.729 10.9699H114.739C114.909 10.9699 115.059 11.1265 115.059 11.3027V18.6822C115.059 18.6822 116.603 17.6448 118.863 17.6448L118.844 17.6056C121.104 17.6056 124.436 18.4865 124.436 25.2005ZM108.018 18.1341H104.064C103.856 18.1341 103.743 18.2907 103.743 18.506V29.1545C103.743 29.1545 102.708 29.9179 101.296 29.9179C99.8836 29.9179 99.4693 29.2524 99.4693 27.7843V18.4865C99.4693 18.3103 99.3187 18.1537 99.1492 18.1537H95.1199C94.9504 18.1537 94.7998 18.3103 94.7998 18.4865V28.489C94.7998 32.7954 97.1157 33.8719 100.298 33.8719C102.915 33.8719 105.043 32.3647 105.043 32.3647C105.043 32.3647 105.137 33.1281 105.193 33.2456C105.231 33.3434 105.363 33.4217 105.495 33.4217H108.018C108.225 33.4217 108.338 33.2651 108.338 33.089L108.375 18.4669C108.375 18.2907 108.225 18.1341 108.018 18.1341ZM63.3935 18.1146H59.383C59.2136 18.1146 59.0629 18.2907 59.0629 18.506V32.8737C59.0629 33.2651 59.3077 33.4022 59.6278 33.4022H63.2429C63.6195 33.4022 63.7136 33.226 63.7136 32.8737V18.4473C63.7136 18.2712 63.563 18.1146 63.3935 18.1146ZM61.4165 11.4984C59.9667 11.4984 58.8182 12.6924 58.8182 14.1997C58.8182 15.7069 59.9667 16.9009 61.4165 16.9009C62.8287 16.9009 63.9772 15.7069 63.9772 14.1997C63.9772 12.6924 62.8287 11.4984 61.4165 11.4984ZM92.4651 11.0091H88.4922C88.3227 11.0091 88.1721 11.1656 88.1721 11.3418V19.3477H81.9398V11.3418C81.9398 11.1656 81.7892 11.0091 81.6197 11.0091H77.6092C77.4398 11.0091 77.2891 11.1656 77.2891 11.3418V33.089C77.2891 33.2651 77.4586 33.4217 77.6092 33.4217H81.6197C81.7892 33.4217 81.9398 33.2651 81.9398 33.089V23.7911H88.1721L88.1345 33.089C88.1345 33.2651 88.2851 33.4217 88.4545 33.4217H92.4651C92.6345 33.4217 92.7851 33.2651 92.7851 33.089V11.3418C92.7851 11.1656 92.6345 11.0091 92.4651 11.0091ZM56.9353 20.6397V31.8754C56.9353 31.9537 56.9165 32.0907 56.8223 32.1298C56.8223 32.1298 54.4687 33.8719 50.59 33.8719C45.9017 33.8719 40.3472 32.3451 40.3472 22.2839C40.3472 12.2227 45.205 10.1478 49.9499 10.1674C54.0545 10.1674 55.7114 11.1265 55.975 11.3027C56.0503 11.4005 56.088 11.4788 56.088 11.5767L55.2972 15.061C55.2972 15.2371 55.1277 15.4524 54.9206 15.3937C54.2428 15.1784 53.226 14.7478 50.8348 14.7478C48.067 14.7478 45.092 15.5699 45.092 22.049C45.092 28.5281 47.9164 29.2915 49.9499 29.2915C51.6821 29.2915 52.3034 29.0762 52.3034 29.0762V24.5741H49.5356C49.3285 24.5741 49.1779 24.4175 49.1779 24.2413V20.6397C49.1779 20.4635 49.3285 20.3069 49.5356 20.3069H56.5776C56.7847 20.3069 56.9353 20.4635 56.9353 20.6397Z" fill="#208FFF"/>
</svg>
