<svg width="160" height="42" viewBox="0 0 160 42" fill="none" xmlns="http://www.w3.org/2000/svg">
<g clip-path="url(#clip0_467_533)">
<path fill-rule="evenodd" clip-rule="evenodd" d="M27.517 1.86102C32.3051 3.43502 36.3321 6.65455 38.8612 10.8996C40.7027 13.9522 41.6603 17.4579 41.6357 20.9875C41.6357 25.9003 39.8188 30.6222 36.4794 34.3188C33.1399 38.0152 28.5483 40.4 23.5392 41.044C18.5301 41.664 13.4474 40.5193 9.24854 37.8006C5.04975 35.0819 2.00501 30.98 0.703631 26.2342C-0.597751 21.5122 -0.0821102 16.4563 2.15234 12.0681C4.38679 7.68002 8.19271 4.22202 12.8581 2.33798C17.5234 0.45396 22.7289 0.28702 27.517 1.86102ZM27.1978 39.1839C31.7403 37.6813 35.5464 34.6288 37.9526 30.5984C39.6714 27.6889 40.6045 24.374 40.6045 21.0113C40.6045 16.3609 38.8612 11.8774 35.6936 8.37164C32.5261 4.86592 28.1555 2.60031 23.4164 2.00411C18.6529 1.4079 13.8402 2.50493 9.86242 5.08056C5.8846 7.68002 2.98718 11.5673 1.75947 16.0747C0.53175 20.582 0.998281 25.3518 3.13451 29.5251C5.27075 33.6987 8.88024 36.9658 13.3 38.7546C17.7198 40.5193 22.6551 40.6862 27.1978 39.1839ZM24.7425 8.82475C26.1911 9.99332 27.9836 12.9267 29.7516 15.9077C31.544 18.9126 33.2627 21.9175 33.5574 23.7539C33.7539 25.0893 33.4837 26.4488 32.7963 27.6173C32.1088 28.8336 31.2002 29.5728 29.6288 30.2169C28.0573 30.8607 24.2512 30.9323 20.8383 30.9323C17.4252 30.9323 13.6193 30.8368 12.0478 30.2169C10.4763 29.5728 9.59237 28.8097 8.88028 27.6173C8.19276 26.4488 7.92266 25.0893 8.11911 23.7539C8.41375 21.9414 10.1326 18.9126 11.925 15.9077C13.693 12.9267 15.4609 9.99332 16.9341 8.82475C18.0391 7.94236 19.4141 7.46538 20.8383 7.46538C22.2625 7.46538 23.6374 7.94236 24.7425 8.82475ZM29.2112 29.3105C30.1935 28.9766 31.323 28.1421 31.9122 27.1404C32.5261 26.0671 32.7226 24.7793 32.477 23.8492C32.2806 22.8715 31.4703 20.9159 28.7939 16.4324C26.093 11.8773 24.9879 10.3749 24.104 9.6833C23.0482 8.84859 22.0169 8.51471 20.8137 8.51471C19.6351 8.51471 18.5793 8.84859 17.5234 9.6833C16.664 10.3749 15.5345 11.9012 12.8335 16.4324C10.1571 20.9159 9.34683 22.8715 9.15038 23.8492C8.95395 24.8033 9.15038 26.091 9.76424 27.1404C10.3536 28.1421 11.483 28.9766 12.4652 29.3105C13.693 29.716 15.731 29.883 20.8383 29.883C25.9455 29.883 27.9836 29.716 29.2112 29.3105ZM22.6551 10.7326C22.4588 10.4226 22.2132 10.1602 21.8941 9.9933C21.5748 9.80251 21.2065 9.73097 20.8382 9.73097C20.4699 9.73097 20.1016 9.82635 19.7823 9.9933C19.4631 10.1841 19.193 10.4226 19.0212 10.7326L10.8937 24.4215C10.7218 24.7317 10.6236 25.0893 10.6236 25.4471C10.6236 25.8048 10.7218 26.1626 10.8937 26.4726C11.0901 26.7825 11.3356 27.045 11.6549 27.2118C11.9741 27.4027 12.3424 27.4743 12.7107 27.4743H28.9903C29.3585 27.4743 29.7269 27.3787 30.0461 27.2118C30.3652 27.0211 30.6355 26.7825 30.8074 26.4726C31.0037 26.1626 31.0774 25.8048 31.0774 25.4471C31.0774 25.0893 30.9792 24.7317 30.8074 24.4215L22.6551 10.7326ZM29.8742 25.948C29.776 26.091 29.6532 26.234 29.5059 26.3056C29.3585 26.401 29.1622 26.4486 28.9903 26.4486H12.7107C12.5388 26.4486 12.3424 26.401 12.195 26.3056C12.0477 26.2103 11.9004 26.091 11.8267 25.948C11.7285 25.8048 11.6794 25.6141 11.6794 25.4471C11.6794 25.2802 11.7285 25.0893 11.8267 24.9463L19.9542 11.2573C20.0524 11.1142 20.1752 10.9711 20.3226 10.8995C20.4699 10.8042 20.6663 10.7564 20.8382 10.7564C21.0101 10.7564 21.2065 10.8042 21.3538 10.8995C21.5011 10.9949 21.6484 11.1142 21.7222 11.2573L29.8497 24.9463C29.9479 25.0893 29.997 25.2802 29.997 25.4471C29.997 25.6141 29.9723 25.781 29.8742 25.948ZM26.8785 7.03612C28.7446 8.20469 30.5617 10.4703 32.7961 14.2383C35.0551 18.0303 36.1356 20.7251 36.2093 22.8475C36.3319 24.994 35.8655 26.9734 34.7851 28.7859C33.7293 30.5984 32.1332 32.077 30.1933 32.9832C28.5974 33.8656 25.2579 34.3665 20.8136 34.3665C16.3693 34.3665 13.0299 33.8656 11.4338 32.9832C9.51859 32.0531 7.92257 30.5984 6.84216 28.7859C5.76177 26.9734 5.29524 24.994 5.41801 22.8475C5.54078 20.7251 6.62119 18.0303 8.88017 14.2383C11.1146 10.4703 12.9317 8.20469 14.7978 7.03612C16.7867 5.79601 18.7019 5.29518 20.8382 5.29518C22.9498 5.29518 24.8897 5.77215 26.8785 7.03612ZM29.7269 32.0531C31.4703 31.2184 32.9436 29.9067 33.9012 28.2611C34.8832 26.6158 35.2517 24.8986 35.1289 22.8715C35.0061 20.8444 33.9503 18.3164 31.8141 14.7392C29.7023 11.1857 27.9098 8.96785 26.2646 7.89466C24.6441 6.84534 22.7533 6.27296 20.7891 6.27296C18.8493 6.27296 16.934 6.82148 15.3134 7.89466C13.6683 8.99168 11.8758 11.1857 9.76413 14.7392C7.65245 18.3164 6.59663 20.8444 6.4493 22.8715C6.30197 24.8986 6.74396 26.6158 7.72612 28.2611C8.7083 29.9067 10.157 31.2184 11.9004 32.0531C13.3245 32.8402 16.5902 33.3171 20.8136 33.3171C25.037 33.3171 28.3027 32.8402 29.7269 32.0531ZM38.9594 21.9175C38.9594 19.2703 37.8545 15.9554 35.8411 12.5689C33.8275 9.18243 31.4212 6.58294 29.064 5.27128C26.584 3.84038 23.7358 3.07722 20.8383 3.07722C17.9409 3.07722 15.0926 3.84038 12.6126 5.27128C10.2799 6.58294 7.84904 9.18243 5.83557 12.5689C3.82212 15.9554 2.71717 19.2703 2.71717 21.9175C2.6435 24.7317 3.38013 27.498 4.82884 29.9544C6.27756 32.387 8.38923 34.3902 10.9429 35.7495C13.3001 37.0612 16.8114 37.8006 20.8383 37.8006C24.8653 37.8006 28.3764 37.0851 30.7336 35.7495C33.2873 34.3902 35.3991 32.387 36.8478 29.9544C38.2964 27.5219 39.0331 24.7317 38.9594 21.9175ZM35.9392 29.4298C34.5888 31.7192 32.5998 33.5794 30.2182 34.8434C28.0082 36.0834 24.6934 36.7512 20.8383 36.7512C16.9833 36.7512 13.6684 36.0834 11.4585 34.8434C9.07676 33.5794 7.11239 31.7192 5.7619 29.4535C4.41142 27.188 3.72389 24.5884 3.79756 21.9651C3.79756 19.4849 4.85341 16.337 6.79319 13.1174C8.733 9.89787 10.992 7.41765 13.1773 6.17752C15.4854 4.79431 18.1373 4.07886 20.8629 4.07886C23.5639 4.07886 26.2402 4.79431 28.5483 6.17752C30.7336 7.41765 33.0173 9.87404 34.9325 13.1174C36.8478 16.3608 37.9282 19.4849 37.9282 21.9651C37.9526 24.5647 37.2897 27.1641 35.9392 29.4298ZM101.303 14.0237C101.303 11.4958 103.414 9.51639 106.091 9.51639C108.767 9.51639 110.879 11.4958 110.879 14.0237C110.879 16.5517 108.767 18.5311 106.091 18.5311C103.414 18.5311 101.303 16.5517 101.303 14.0237ZM104.372 16.5278C104.888 16.8617 105.477 17.0287 106.091 17.0287C106.901 17.0287 107.662 16.6948 108.227 16.0986C108.816 15.55 109.136 14.7869 109.136 13.9999C109.136 13.4037 108.964 12.8313 108.62 12.3305C108.276 11.8535 107.785 11.4481 107.221 11.2335C106.656 10.995 106.017 10.9473 105.428 11.0665C104.839 11.1858 104.299 11.472 103.856 11.9012C103.439 12.3305 103.144 12.879 103.022 13.4514C102.923 14.0476 102.973 14.6438 103.218 15.1923C103.464 15.7408 103.856 16.1939 104.372 16.5278ZM119.62 9.70717C121.609 9.70717 122.837 10.9711 122.837 12.6644C122.837 13.9283 121.929 14.93 120.75 15.2877L122.984 18.388H120.897L119.031 15.6454H116.33V18.388H114.685V9.70717H119.62ZM116.33 11.2096V14.1191H119.498C120.676 14.1191 121.192 13.4514 121.192 12.6644C121.192 11.8774 120.652 11.2096 119.498 11.2096H116.33ZM62.1142 18.388L57.4733 9.70717V9.73103H56.6385L51.9485 18.4118H53.7165L57.0558 12.1159L58.75 15.3354H55.9509L56.7122 16.7663H59.4867L60.3462 18.388H62.1142ZM135.605 18.388L130.965 9.70717V9.73103H130.105L125.415 18.4118H127.183L130.523 12.1159L132.217 15.3354H129.418L130.179 16.7663H132.978L133.837 18.388H135.605ZM153.186 13.1652L153.997 14.6915H157.508V13.1652H153.186ZM152.499 11.2096H158.392V9.68334H150.829V18.3642H158.392V16.8378H152.499V11.2096ZM91.0638 9.70717H89.4186V18.388H91.0638V9.70717ZM97.4969 9.70717H95.8519V13.1652H91.7758L92.5862 14.6915H95.8519V18.388H97.4969V9.70717ZM137.668 14.0476C137.668 16.5755 139.779 18.5549 142.456 18.5549C145.918 18.5549 147.539 15.6693 147.219 13.1891H142.038L142.358 13.7376L142.849 14.7153H145.476C145.255 16.027 144.052 17.1002 142.456 17.1002C140.835 17.1002 139.362 15.7647 139.362 14.0714C139.362 12.4021 140.86 11.0904 142.456 11.0904C143.094 11.0904 143.757 11.2812 144.199 11.6628L145.476 10.5657C144.617 9.89796 143.561 9.54025 142.456 9.54025C139.779 9.54025 137.668 11.4958 137.668 14.0476ZM84.213 18.1018C84.8515 17.8157 85.4406 17.3625 85.8828 16.814L84.7042 15.8124C84.4095 16.2178 84.0166 16.5278 83.5747 16.7425C83.1325 16.9571 82.6415 17.0763 82.1505 17.0763C81.3401 17.0525 80.579 16.7186 79.9896 16.1701C79.4004 15.6216 79.0811 14.8584 79.0811 14.0714C79.0811 12.3782 80.4809 11.0665 82.0768 11.0665C83.0835 11.0665 83.771 11.472 84.4586 12.3067L85.7109 11.2335C84.7286 10.0887 83.4519 9.54025 82.0768 9.54025C79.4004 9.54025 77.3377 11.4958 77.3377 14.0476C77.3377 16.5755 79.4495 18.5549 82.1258 18.5549C82.8381 18.5549 83.5501 18.4119 84.213 18.1018ZM67.0004 12.6882L72.5252 18.3642H73.4582V9.68334H71.813V15.3354L66.3129 9.68334H65.3552V18.3642H67.0004V12.6882ZM89.0502 25.1609H92.0949V32.3154H93.7401V25.1609H96.6376V23.6346H89.0502V25.1609ZM112.77 23.6346H111.125V32.3154H117.656V30.7891H112.77V23.6346ZM97.7178 32.3154L102.408 23.6346V23.6109H103.267L107.908 32.2917H106.14L105.281 30.67H102.482L101.72 29.2391H104.52L102.825 26.0196L99.4858 32.3154H97.7178ZM74.9805 27.0927H80.1615C80.4809 29.5967 78.8848 32.4823 75.3981 32.4823C72.7215 32.4823 70.6099 30.5268 70.6099 27.9751C70.6099 25.4471 72.7215 23.4677 75.3981 23.4677C76.4785 23.4916 77.5587 23.8492 78.4182 24.4931L77.1414 25.5664C76.6995 25.1848 76.0363 24.994 75.3981 24.994C73.7775 24.994 72.3042 26.2819 72.3042 27.9751C72.3042 29.6683 73.8019 31.0037 75.3981 31.0037C76.9939 31.0037 78.1972 29.9069 78.4182 28.619H75.7909L75.2999 27.6412L74.9805 27.0927ZM85.4406 32.2917H83.7957V23.6109H85.4406V32.2917ZM66.7304 32.2917H65.0852V23.6109H66.7304V32.2917ZM56.4912 23.6346H53.2746V32.3154H56.4912C59.4376 32.3154 61.2793 30.2645 61.2793 27.9751C61.2793 25.6857 59.5113 23.6346 56.4912 23.6346ZM56.4666 30.7891H54.9196V25.1609H56.4666C58.3818 25.1609 59.6095 26.4488 59.6095 27.9751C59.6095 29.5014 58.3818 30.7891 56.4666 30.7891Z" fill="#FFFEF1"/>
</g>
<defs>
<clipPath id="clip0_467_533">
<rect width="160" height="42" fill="white"/>
</clipPath>
</defs>
</svg>
