<svg width="155" height="40" viewBox="0 0 155 40" fill="none" xmlns="http://www.w3.org/2000/svg">
<path fill-rule="evenodd" clip-rule="evenodd" d="M18.2353 30.316C23.9422 30.316 28.5686 25.6759 28.5686 19.9521C28.5686 14.2282 23.9422 9.5881 18.2353 9.5881C12.5284 9.5881 7.90196 14.2282 7.90196 19.9521C7.90196 25.6759 12.5284 30.316 18.2353 30.316ZM18.2353 38.2414C28.3064 38.2414 36.4706 30.053 36.4706 19.9521C36.4706 9.85114 28.3064 1.66272 18.2353 1.66272C8.16422 1.66272 0 9.85114 0 19.9521C0 30.053 8.16422 38.2414 18.2353 38.2414Z" fill="#6938EF"/>
<path d="M18.4438 20.3525C20.3429 18.4478 23.4218 18.4478 25.3208 20.3525L34.7766 29.8363C36.6756 31.741 36.6756 34.829 34.7766 36.7337V36.7337C32.8776 38.6383 29.7987 38.6383 27.8997 36.7337L18.4438 27.2498C16.5448 25.3452 16.5448 22.2571 18.4438 20.3525V20.3525Z" fill="#F670C7"/>
<path d="M21.0991 29.9128L27.1046 35.9361C29.9851 34.3249 32.385 31.953 34.0341 29.0915L28.0778 23.1176C27.0316 26.3925 24.4056 28.9583 21.0991 29.9128Z" fill="#6519BA"/>
<path d="M65.9123 30.0111C65.3863 30.6629 64.7442 31.1595 63.986 31.5009C63.2433 31.8423 62.4233 32.013 61.5259 32.013C60.3191 32.013 59.2283 31.7492 58.2535 31.2215C57.2787 30.7094 56.1647 29.7939 54.9115 28.4748C53.4416 28.2886 52.1264 27.8153 50.966 27.0549C49.8211 26.2945 48.9237 25.3169 48.2738 24.1219C47.6394 22.9115 47.3223 21.577 47.3223 20.1182C47.3223 18.5199 47.7013 17.0844 48.4595 15.8119C49.2331 14.5239 50.293 13.5152 51.6391 12.7859C53.0006 12.0565 54.5247 11.6918 56.2111 11.6918C57.8976 11.6918 59.4139 12.0565 60.76 12.7859C62.1061 13.5152 63.166 14.5239 63.9396 15.8119C64.7132 17.0844 65.1 18.5199 65.1 20.1182C65.1 22.0115 64.5662 23.6719 63.4986 25.0996C62.4465 26.5273 61.0463 27.5204 59.2979 28.0791C59.6847 28.4826 60.056 28.7697 60.4119 28.9404C60.7832 29.1266 61.1778 29.2197 61.5955 29.2197C62.6012 29.2197 63.4832 28.8162 64.2413 28.0093L65.9123 30.0111ZM51.1285 20.1182C51.1285 21.1269 51.3451 22.027 51.7783 22.8184C52.227 23.6098 52.8382 24.2306 53.6118 24.6806C54.3854 25.1151 55.2519 25.3324 56.2111 25.3324C57.1704 25.3324 58.0369 25.1151 58.8105 24.6806C59.5841 24.2306 60.1875 23.6098 60.6208 22.8184C61.0695 22.027 61.2938 21.1269 61.2938 20.1182C61.2938 19.1096 61.0695 18.2095 60.6208 17.4181C60.1875 16.6266 59.5841 16.0137 58.8105 15.5792C58.0369 15.1291 57.1704 14.9041 56.2111 14.9041C55.2519 14.9041 54.3854 15.1291 53.6118 15.5792C52.8382 16.0137 52.227 16.6266 51.7783 17.4181C51.3451 18.2095 51.1285 19.1096 51.1285 20.1182Z" fill="white"/>
<path d="M80.2494 15.7421V28.2653H76.8145V26.7756C76.3349 27.3187 75.7624 27.7377 75.0971 28.0325C74.4318 28.3119 73.7123 28.4515 72.9387 28.4515C71.2986 28.4515 69.999 27.9782 69.0397 27.0316C68.0804 26.085 67.6007 24.6806 67.6007 22.8184V15.7421H71.2213V22.283C71.2213 24.3004 72.0645 25.3091 73.751 25.3091C74.6175 25.3091 75.3137 25.0298 75.8398 24.4711C76.3658 23.8969 76.6289 23.0512 76.6289 21.9339V15.7421H80.2494Z" fill="white"/>
<path d="M89.545 28.4515C88.2298 28.4515 87.0462 28.18 85.9941 27.6368C84.9574 27.0782 84.1451 26.31 83.5572 25.3324C82.9692 24.3547 82.6752 23.2452 82.6752 22.0037C82.6752 20.7622 82.9692 19.6527 83.5572 18.675C84.1451 17.6974 84.9574 16.937 85.9941 16.3939C87.0462 15.8352 88.2298 15.5559 89.545 15.5559C90.8601 15.5559 92.036 15.8352 93.0727 16.3939C94.1093 16.937 94.9216 17.6974 95.5096 18.675C96.0975 19.6527 96.3915 20.7622 96.3915 22.0037C96.3915 23.2452 96.0975 24.3547 95.5096 25.3324C94.9216 26.31 94.1093 27.0782 93.0727 27.6368C92.036 28.18 90.8601 28.4515 89.545 28.4515ZM89.545 25.472C90.4733 25.472 91.2315 25.1617 91.8194 24.5409C92.4228 23.9047 92.7246 23.0589 92.7246 22.0037C92.7246 20.9485 92.4228 20.1105 91.8194 19.4898C91.2315 18.8535 90.4733 18.5354 89.545 18.5354C88.6166 18.5354 87.8508 18.8535 87.2473 19.4898C86.6439 20.1105 86.3422 20.9485 86.3422 22.0037C86.3422 23.0589 86.6439 23.9047 87.2473 24.5409C87.8508 25.1617 88.6166 25.472 89.545 25.472Z" fill="white"/>
<path d="M106.865 27.6601C106.509 27.9239 106.068 28.1256 105.542 28.2653C105.031 28.3895 104.49 28.4515 103.917 28.4515C102.432 28.4515 101.279 28.0713 100.459 27.3109C99.6548 26.5505 99.2525 25.4332 99.2525 23.959V18.8147H97.3262V16.0214H99.2525V12.9721H102.873V16.0214H105.983V18.8147H102.873V23.9124C102.873 24.4401 103.005 24.8513 103.268 25.1461C103.546 25.4255 103.933 25.5651 104.428 25.5651C105 25.5651 105.488 25.41 105.89 25.0996L106.865 27.6601Z" fill="white"/>
<path d="M108.897 15.7421H112.518V28.2653H108.897V15.7421ZM110.708 13.9963C110.042 13.9963 109.501 13.8023 109.083 13.4144C108.665 13.0264 108.456 12.5453 108.456 11.9712C108.456 11.397 108.665 10.9159 109.083 10.528C109.501 10.14 110.042 9.94604 110.708 9.94604C111.373 9.94604 111.914 10.1323 112.332 10.5047C112.75 10.8771 112.959 11.3427 112.959 11.9013C112.959 12.5066 112.75 13.0109 112.332 13.4144C111.914 13.8023 111.373 13.9963 110.708 13.9963Z" fill="white"/>
<path d="M128.109 22.0503C128.109 22.0968 128.086 22.4227 128.039 23.0279H118.593C118.764 23.8038 119.166 24.4168 119.8 24.8668C120.435 25.3168 121.224 25.5419 122.168 25.5419C122.817 25.5419 123.39 25.4488 123.885 25.2625C124.396 25.0608 124.867 24.7504 125.301 24.3314L127.227 26.4264C126.051 27.7765 124.334 28.4515 122.075 28.4515C120.667 28.4515 119.421 28.18 118.338 27.6368C117.255 27.0782 116.42 26.31 115.832 25.3324C115.244 24.3547 114.95 23.2452 114.95 22.0037C114.95 20.7778 115.236 19.676 115.808 18.6983C116.396 17.7052 117.193 16.937 118.199 16.3939C119.22 15.8352 120.357 15.5559 121.61 15.5559C122.833 15.5559 123.939 15.8197 124.929 16.3473C125.92 16.8749 126.693 17.6353 127.25 18.6285C127.823 19.6061 128.109 20.7467 128.109 22.0503ZM121.634 18.3026C120.814 18.3026 120.125 18.5354 119.568 19.0009C119.011 19.4665 118.671 20.1027 118.547 20.9097H124.697C124.573 20.1182 124.233 19.4898 123.676 19.0242C123.119 18.5431 122.438 18.3026 121.634 18.3026Z" fill="white"/>
<path d="M138.109 15.5559C139.656 15.5559 140.901 16.0214 141.845 16.9525C142.804 17.8836 143.284 19.2647 143.284 21.0959V28.2653H139.663V21.6545C139.663 20.6614 139.447 19.9243 139.014 19.4432C138.58 18.9466 137.954 18.6983 137.134 18.6983C136.221 18.6983 135.494 18.9854 134.952 19.5596C134.411 20.1182 134.14 20.9562 134.14 22.0735V28.2653H130.519V15.7421H133.977V17.2086C134.457 16.681 135.053 16.2775 135.764 15.9982C136.476 15.7033 137.258 15.5559 138.109 15.5559Z" fill="white"/>
<path d="M154.619 27.6601C154.263 27.9239 153.822 28.1256 153.296 28.2653C152.786 28.3895 152.244 28.4515 151.672 28.4515C150.186 28.4515 149.034 28.0713 148.214 27.3109C147.409 26.5505 147.007 25.4332 147.007 23.959V18.8147H145.081V16.0214H147.007V12.9721H150.627V16.0214H153.737V18.8147H150.627V23.9124C150.627 24.4401 150.759 24.8513 151.022 25.1461C151.3 25.4255 151.687 25.5651 152.182 25.5651C152.755 25.5651 153.242 25.41 153.644 25.0996L154.619 27.6601Z" fill="white"/>
</svg>
