<svg width="158" height="25" viewBox="0 0 158 25" fill="none" xmlns="http://www.w3.org/2000/svg">
<path d="M19.6907 3.95016C19.0767 2.41507 17.5809 0.757178 14.7797 0.984901C11.2112 1.37339 10.0991 4.79792 10.6384 6.84096C9.21715 5.87722 6.80045 5.45341 4.691 7.26282C1.96745 9.99681 3.42418 13.6941 4.92146 14.581C3.27135 14.428 0.663476 15.5446 0.0865185 18.4652C-0.527241 22.0916 2.23339 24.2056 4.92146 24.2056H34.7297C37.8382 24.2056 39.5629 21.5128 39.3693 18.9732C39.0644 15.6587 36.0356 14.387 34.3834 14.6595C35.7638 13.8883 37.6074 10.2657 34.8042 7.41781C32.579 5.29835 29.7423 6.06948 28.7449 6.99393C29.2826 5.22339 28.401 1.56349 24.7919 0.984553C24.5424 0.95667 24.3022 0.94165 24.0733 0.94165C21.3183 0.941999 20.0795 2.95868 19.6907 3.95016" fill="white"/>
<path d="M5.18756 7.83981C3.61376 9.26643 3.04097 12.4989 5.87798 14.3886L17.1958 22.1642L11.7081 9.57453C10.5582 6.60364 7.41241 5.95579 5.18756 7.83981Z" fill="#F37021"/>
<path d="M14.9298 1.71885C13.0902 1.75633 10.3276 3.95019 11.557 7.30018L17.2327 20.7042L19.2271 6.60567C19.6887 3.1025 17.0412 1.48543 14.9298 1.71885" fill="#CC004C"/>
<path d="M20.1132 6.06798H21.1863C21.1863 6.06798 21.7595 6.06798 21.8375 6.33868C21.4151 6.68405 20.2656 6.7273 20.4182 8.57217L22.2224 20.7023L27.8593 7.26299C29.0123 4.26226 26.5921 1.7562 24.4453 1.67958C24.3451 1.67234 24.2444 1.6665 24.1403 1.6665C22.2133 1.6665 20.0052 3.06886 20.1132 6.06798" fill="#6460AA"/>
<path d="M27.632 9.68872L22.3003 22.1273L33.6149 14.3107C36.223 12.4582 35.8024 9.49646 34.3424 8.03257C33.7304 7.34356 32.6066 6.81128 31.4161 6.81128C30.0097 6.81105 28.5045 7.55807 27.632 9.68872" fill="#0089D0"/>
<path d="M32.3484 16.0807L21.7227 23.5129H34.806C37.4901 23.5129 39.2151 20.7414 38.4482 18.1982C37.9347 16.5997 36.4152 15.3448 34.6515 15.343C33.9092 15.3433 33.122 15.5673 32.3484 16.0807" fill="#0DB14B"/>
<path d="M4.88265 23.5129H17.7729L7.14458 16.0806C4.68919 14.5008 1.92822 15.4252 0.931507 18.0468C0.0866596 21.0478 2.19611 23.5129 4.88265 23.5129" fill="#FCB711"/>
<path fill-rule="evenodd" clip-rule="evenodd" d="M86.5395 17.3212C86.5395 17.7952 86.3926 18.2201 86.0989 18.596C85.8051 18.9719 85.3807 19.2661 84.8258 19.4786C84.2709 19.691 83.6263 19.7973 82.8918 19.7973C81.6188 19.7973 80.5416 19.4704 79.6603 18.8167C78.779 18.1466 78.1506 17.215 77.7752 16.0219L72.6342 16.8554C73.2054 19.1926 74.3968 20.9821 76.2084 22.2242C78.0364 23.4663 80.4029 24.0874 83.308 24.0874C85.0217 24.0874 86.5558 23.785 87.9105 23.1803C89.2814 22.5593 90.3423 21.7013 91.093 20.6062C91.8601 19.4949 92.2436 18.2365 92.2436 16.8309C92.2436 15.5235 91.9907 14.4285 91.4847 13.5459C91.0441 12.7614 90.4076 12.1322 89.5752 11.6582C88.8897 11.266 88.0247 10.9473 86.9802 10.7021C86.36 10.5714 85.4379 10.4243 84.2138 10.2609C83.1529 10.1301 82.394 10.0157 81.937 9.91766C81.2026 9.75423 80.664 9.5336 80.3213 9.25577C79.8969 8.92889 79.6848 8.48763 79.6848 7.93195C79.6848 7.24553 79.9704 6.70619 80.5416 6.31395C81.1128 5.92171 81.8799 5.72559 82.8428 5.72559C83.8384 5.72559 84.6708 5.95439 85.3399 6.412C86.0091 6.86963 86.4824 7.50702 86.7599 8.32419L91.754 7.22101C91.4439 6.02794 90.8727 4.99831 90.0403 4.13211C89.208 3.2659 88.1634 2.604 86.9067 2.14638C85.65 1.68877 84.2546 1.45996 82.7204 1.45996C80.9741 1.45996 79.4318 1.75414 78.0935 2.3425C76.7878 2.93086 75.7759 3.75621 75.0578 4.81853C74.356 5.8645 74.0051 7.06575 74.0051 8.42224C74.0051 9.72972 74.2499 10.8247 74.7396 11.7073C75.1802 12.4918 75.8167 13.121 76.6491 13.5949C77.3509 13.9872 78.2159 14.3059 79.2441 14.551C79.8643 14.6818 80.7946 14.8289 82.035 14.9923C83.0958 15.123 83.8466 15.2374 84.2872 15.3355C85.0217 15.4989 85.5684 15.7196 85.9275 15.9974C86.3355 16.3243 86.5395 16.7655 86.5395 17.3212ZM147.375 24.0874C150.003 24.0874 152.223 23.45 154.034 22.1752C155.846 20.8841 157.168 19.0209 158 16.5858L152.712 15.4826C152.206 16.6757 151.496 17.5991 150.582 18.2528C149.685 18.8902 148.64 19.2089 147.449 19.2089C146.339 19.2089 145.368 18.9474 144.536 18.4244C143.703 17.8851 143.059 17.1333 142.602 16.169C142.145 15.1884 141.916 14.0526 141.916 12.7614C141.916 11.4703 142.136 10.3426 142.577 9.37834C143.034 8.39774 143.679 7.64594 144.511 7.12296C145.36 6.58362 146.339 6.31395 147.449 6.31395C148.624 6.31395 149.669 6.64082 150.582 7.29456C151.513 7.94829 152.223 8.86353 152.712 10.0402L158 8.96158C157.168 6.5591 155.821 4.7123 153.961 3.42117C152.1 2.11369 149.864 1.45996 147.253 1.45996C145.082 1.45996 143.14 1.94209 141.426 2.90636C139.745 3.85426 138.432 5.17809 137.485 6.87779C136.522 8.6102 136.041 10.5796 136.041 12.7859C136.041 14.976 136.522 16.9371 137.485 18.6696C138.448 20.3529 139.778 21.6686 141.475 22.6165C143.205 23.5971 145.172 24.0874 147.375 24.0874ZM116.137 1.92577V23.6216H127.178C129.61 23.6216 131.487 23.1396 132.809 22.1753C134.213 21.1457 134.914 19.5929 134.914 17.5172C134.914 16.1117 134.523 14.9677 133.739 14.0851C133.037 13.3006 132.107 12.8023 130.948 12.5898V12.4672C132.026 12.1403 132.866 11.5765 133.47 10.7757C134.09 9.95848 134.4 9.01881 134.4 7.9565C134.4 5.91357 133.69 4.37735 132.27 3.34772C130.965 2.3998 129.096 1.92577 126.664 1.92577H116.137ZM121.768 6.43645H125.514C126.574 6.43645 127.35 6.59991 127.839 6.92677C128.329 7.25365 128.574 7.76042 128.574 8.44684C128.574 9.13326 128.329 9.63162 127.839 9.94214C127.366 10.2527 126.591 10.408 125.514 10.408H121.768V6.43645ZM121.768 14.5755H125.636C126.86 14.5755 127.741 14.7553 128.28 15.1149C128.835 15.4581 129.112 16.0301 129.112 16.8309C129.112 17.6154 128.835 18.1874 128.28 18.547C127.725 18.9065 126.844 19.0864 125.636 19.0864H121.768V14.5755ZM113.689 23.6216H107.103L99.4898 10.6531H99.3674V23.6216H93.8102V1.92575H100.396L107.985 14.8697H108.107V1.92575H113.689V23.6216ZM71.263 23.6216H65.6323V8.27516H65.5099L60.3688 23.6216H56.6721L51.5311 8.27516H51.4087V23.6216H45.9004V1.92575H54.934L58.5817 13.3498H58.7041L62.4497 1.92575H71.263V23.6216Z" fill="white"/>
</svg>
